<svg width="13" height="14" viewBox="0 0 13 14" fill="none" xmlns="http://www.w3.org/2000/svg">
<mask id="mask0_4565_2798" style="mask-type:alpha" maskUnits="userSpaceOnUse" x="0" y="0" width="13" height="14">
<rect y="0.5" width="13" height="13" fill="#D9D9D9"/>
</mask>
<g mask="url(#mask0_4565_2798)">
<path d="M6.01255 12.1998V9.96543L4.27922 11.6988L3.58859 11.0081L6.01255 8.59772V7.4873H4.90213L2.47817 9.91126L1.78755 9.22064L3.53442 7.4873H1.30005V6.5123H3.53442L1.80109 4.77897L2.49172 4.08835L4.90213 6.5123H6.01255V5.40189L3.58859 2.99147L4.27922 2.30085L6.01255 4.03418V1.7998H6.98755V4.03418L8.72088 2.2873L9.41151 2.97793L6.98755 5.40189V6.5123H8.09797L10.5084 4.08835L11.199 4.77897L9.46567 6.5123H11.7V7.4873H9.46567L11.2125 9.22064L10.5219 9.91126L8.09797 7.4873H6.98755V8.59772L9.41151 11.0217L8.72088 11.7123L6.98755 9.96543V12.1998H6.01255Z" fill="#1C1B1F"/>
</g>
</svg>
