<svg width="36" height="36" viewBox="0 0 36 36" fill="none" xmlns="http://www.w3.org/2000/svg">
<mask id="mask0_4557_2091" style="mask-type:alpha" maskUnits="userSpaceOnUse" x="0" y="0" width="36" height="36">
<rect width="36" height="36" fill="#D9D9D9"/>
</mask>
<g mask="url(#mask0_4557_2091)">
<path d="M13.1238 23.7753L26.9238 20.1753C27.3488 20.0503 27.6488 19.7878 27.8238 19.3878C27.9988 18.9878 28.0238 18.5753 27.8988 18.1503C27.7738 17.7253 27.5363 17.3878 27.1863 17.1378C26.8363 16.8878 26.4488 16.8253 26.0238 16.9503L22.3488 17.9253L16.1988 12.2253L13.7238 12.8253L17.3988 19.2753L14.0238 20.1003L12.1488 18.6753L10.3488 19.1253L13.1238 23.7753ZM30.2988 31.1253H5.77383C4.64883 31.1253 3.70508 30.744 2.94258 29.9815C2.18008 29.219 1.79883 28.2753 1.79883 27.1503V20.2503C2.59883 20.2503 3.31133 20.0753 3.93633 19.7253C4.56133 19.3753 4.87383 18.8003 4.87383 18.0003C4.87383 17.2003 4.56133 16.6128 3.93633 16.2378C3.31133 15.8628 2.59883 15.6753 1.79883 15.6753V8.77529C1.79883 7.65029 2.18008 6.70654 2.94258 5.94404C3.70508 5.18154 4.64883 4.80029 5.77383 4.80029H30.2988C31.4238 4.80029 32.3676 5.18154 33.1301 5.94404C33.8926 6.70654 34.2738 7.65029 34.2738 8.77529V27.1503C34.2738 28.2753 33.8926 29.219 33.1301 29.9815C32.3676 30.744 31.4238 31.1253 30.2988 31.1253Z" fill="#EE2737"/>
</g>
</svg>
