<svg width="36" height="36" viewBox="0 0 36 36" fill="none" xmlns="http://www.w3.org/2000/svg">
<mask id="mask0_4557_2085" style="mask-type:alpha" maskUnits="userSpaceOnUse" x="0" y="0" width="36" height="36">
<rect width="36" height="36" fill="#D9D9D9"/>
</mask>
<g mask="url(#mask0_4557_2085)">
<path d="M1.64844 34.4247V8.77471H8.84844V1.57471H27.2234V16.0497H34.4234V34.4247H19.9484V27.2247H16.0484V34.4247H1.64844ZM5.62344 30.4497H8.84844V27.2247H5.62344V30.4497ZM5.62344 23.2497H8.84844V20.0247H5.62344V23.2497ZM5.62344 15.9747H8.84844V12.7497H5.62344V15.9747ZM12.8234 23.2497H16.0484V20.0247H12.8234V23.2497ZM12.8234 15.9747H16.0484V12.7497H12.8234V15.9747ZM12.8234 8.77471H16.0484V5.54971H12.8234V8.77471ZM20.0234 23.2497H23.2484V20.0247H20.0234V23.2497ZM20.0234 15.9747H23.2484V12.7497H20.0234V15.9747ZM20.0234 8.77471H23.2484V5.54971H20.0234V8.77471ZM27.2234 30.4497H30.4484V27.2247H27.2234V30.4497ZM27.2234 23.2497H30.4484V20.0247H27.2234V23.2497Z" fill="#EE2737"/>
</g>
</svg>
