<svg width="48" height="49" viewBox="0 0 48 49" fill="none" xmlns="http://www.w3.org/2000/svg">
<mask id="mask0_4562_1537" style="mask-type:alpha" maskUnits="userSpaceOnUse" x="0" y="0" width="48" height="49">
<rect y="0.864258" width="48" height="48" fill="#D9D9D9"/>
</mask>
<g mask="url(#mask0_4562_1537)">
<path d="M23.9998 47.7708L8.69976 36.2993C8.15776 35.9093 7.74759 35.423 7.46926 34.8403C7.19092 34.2577 7.05176 33.6265 7.05176 32.9468V7.79034C7.05176 6.71067 7.47026 5.74767 8.30726 4.90134C9.14426 4.055 10.1121 3.63184 11.2108 3.63184H36.7888C37.8874 3.63184 38.8599 4.055 39.7063 4.90134C40.5526 5.74767 40.9758 6.71067 40.9758 7.79034V32.9468C40.9758 33.6265 40.8319 34.2577 40.5443 34.8403C40.2566 35.423 39.8418 35.9093 39.2998 36.2993L23.9998 47.7708ZM21.8998 30.9883L33.5803 19.3078L31.0648 16.8928L21.8498 26.0858L16.8783 21.1143L14.4128 23.5793L21.8998 30.9883Z" fill="#003B5C"/>
</g>
</svg>
