<svg width="33" height="33" viewBox="0 0 33 33" fill="none" xmlns="http://www.w3.org/2000/svg">
<g clip-path="url(#clip0_4579_1630)">
<path fill-rule="evenodd" clip-rule="evenodd" d="M16.0803 25.9894C10.8876 25.9894 6.65088 21.7527 6.65088 16.56C6.65088 11.3672 10.8876 7.11182 16.0803 7.11182C21.2918 7.11182 25.5284 11.3672 25.5284 16.56C25.5284 21.7902 21.2918 25.9894 16.0803 25.9894ZM16.0803 8.03039C11.375 8.03039 7.5507 11.8546 7.5507 16.56C7.5507 21.2653 11.375 25.0896 16.0803 25.0896C20.7856 25.0896 24.6099 21.2653 24.6099 16.56C24.6099 11.8546 20.7856 8.03039 16.0803 8.03039Z" fill="#EE2737"/>
<path fill-rule="evenodd" clip-rule="evenodd" d="M16.1553 32.4383C15.3117 32.4383 14.6368 31.8009 13.9432 31.1448C13.4745 30.6949 13.0246 30.2262 12.556 30.095C12.106 30.0013 11.4499 30.1512 10.8313 30.32C9.89398 30.5449 8.93792 30.7699 8.13182 30.3387C7.32573 29.87 7.04454 28.914 6.78209 27.9767C6.59463 27.3393 6.40716 26.7206 6.10722 26.402C5.78853 26.102 5.13241 25.8958 4.51378 25.7083C3.6327 25.4459 2.69539 25.1835 2.28297 24.4336C1.87055 23.6837 2.0955 22.7652 2.33921 21.8654C2.48918 21.2467 2.67664 20.6093 2.54542 20.1782C2.43294 19.747 1.96428 19.2971 1.53311 18.8284C0.876992 18.1723 0.127139 17.4225 0.22087 16.4477C0.127139 15.5103 0.876992 14.7605 1.53311 14.0856C1.96428 13.6545 2.43294 13.1858 2.56416 12.7359C2.67664 12.3235 2.50792 11.6673 2.35795 11.0487C2.11425 10.1676 1.87055 9.23032 2.30171 8.49921C2.71413 7.74936 3.65145 7.48691 4.53253 7.22446C5.1699 7.037 5.80728 6.86828 6.12597 6.53085C6.44465 6.21216 6.61337 5.55604 6.80084 4.95615C7.06328 4.01884 7.34448 3.06277 8.15057 2.59411C8.95666 2.12546 9.93147 2.36916 10.85 2.59411C11.4874 2.74408 12.1248 2.9128 12.5747 2.80032C13.0246 2.70659 13.512 2.23793 13.9807 1.76927C14.6556 1.11315 15.3304 0.457031 16.1928 0.457031C17.0551 0.457031 17.73 1.1319 18.3673 1.78802C18.836 2.23793 19.3046 2.72534 19.7171 2.83782C20.167 2.93155 20.7856 2.78158 21.4042 2.63161C22.3041 2.3879 23.2414 2.12546 23.9912 2.57537C24.7411 2.98779 25.0035 3.88761 25.266 4.78744C25.4347 5.40606 25.6222 6.06219 25.9596 6.36213C26.297 6.69956 26.9344 6.88703 27.553 7.07449C28.4904 7.33694 29.4464 7.61813 29.8963 8.42422C30.3275 9.19282 30.1025 10.1864 29.8588 11.1237C29.7089 11.7423 29.5589 12.3984 29.6526 12.8484C29.7838 13.2795 30.2525 13.7669 30.7024 14.2356C31.3398 14.9292 32.0147 15.6041 31.9959 16.4477C32.0147 17.31 31.3398 18.0224 30.7024 18.6972C30.2525 19.1659 29.7838 19.6533 29.6526 20.0844C29.5589 20.5344 29.7089 21.1905 29.8588 21.8091C30.1025 22.7464 30.3275 23.7025 29.8963 24.5086C29.4277 25.3147 28.4529 25.6146 27.5155 25.8583C26.8969 26.0458 26.2783 26.2332 25.9596 26.5332C25.6222 26.8706 25.4347 27.5267 25.266 28.1454C25.0035 29.0452 24.7411 29.945 23.9912 30.3949C23.2414 30.8074 22.3228 30.5637 21.4042 30.3387C20.7856 30.1887 20.167 30.0013 19.7171 30.1325C19.2859 30.2262 18.8172 30.6949 18.3673 31.1635C17.6925 31.7634 17.0176 32.4383 16.1553 32.4383Z" fill="#EE2737"/>
<path fill-rule="evenodd" clip-rule="evenodd" d="M14.4494 21.6594C14.3744 21.6594 14.2806 21.6219 14.2057 21.6032C14.1869 21.5844 14.1682 21.547 14.1119 21.5282L12.4435 19.8785L10.1377 17.5727C9.50032 16.9166 9.50032 15.8856 10.1377 15.2669C10.7751 14.6296 11.8249 14.6296 12.4435 15.2669L14.4494 17.254L19.7171 11.9301C20.0358 11.6114 20.4294 11.4614 20.8606 11.4614C21.3105 11.4614 21.7042 11.6114 22.0041 11.9301C22.3228 12.2488 22.5103 12.6612 22.5103 13.0924C22.5103 13.5423 22.3228 13.9359 22.0041 14.2359L14.7493 21.5282C14.7306 21.547 14.6743 21.5844 14.6556 21.6032C14.5993 21.6219 14.5243 21.6594 14.4681 21.6594C14.4681 21.6594 14.4681 21.6594 14.4494 21.6594Z" fill="white"/>
</g>
<defs>
<clipPath id="clip0_4579_1630">
<rect width="32" height="32" fill="white" transform="translate(0.108398 0.457031)"/>
</clipPath>
</defs>
</svg>
