<svg xmlns="http://www.w3.org/2000/svg" width="20" height="20" viewBox="0 0 20 20" fill="none">
  <mask id="mask0_99_3297" style="mask-type:alpha" maskUnits="userSpaceOnUse" x="0" y="0" width="20" height="20">
    <rect width="20" height="20" fill="#D9D9D9"/>
  </mask>
  <g mask="url(#mask0_99_3297)">
    <path d="M12.9167 16.6042L9.375 13.0625L10.5417 11.8959L12.9167 14.2709L17.625 9.56254L18.7917 10.7292L12.9167 16.6042ZM17.5 8.33337H15.8333V4.16671H14.1667V6.66671H5.83333V4.16671H4.16667V15.8334H9.16667V17.5H4.16667C3.70833 17.5 3.31597 17.3368 2.98958 17.0105C2.66319 16.6841 2.5 16.2917 2.5 15.8334V4.16671C2.5 3.70837 2.66319 3.31601 2.98958 2.98962C3.31597 2.66324 3.70833 2.50004 4.16667 2.50004H7.64583C7.79861 2.01393 8.09722 1.61462 8.54167 1.30212C8.98611 0.989624 9.47222 0.833374 10 0.833374C10.5556 0.833374 11.0521 0.989624 11.4896 1.30212C11.9271 1.61462 12.2222 2.01393 12.375 2.50004H15.8333C16.2917 2.50004 16.684 2.66324 17.0104 2.98962C17.3368 3.31601 17.5 3.70837 17.5 4.16671V8.33337ZM10 4.16671C10.2361 4.16671 10.434 4.08685 10.5938 3.92712C10.7535 3.7674 10.8333 3.56948 10.8333 3.33337C10.8333 3.09726 10.7535 2.89935 10.5938 2.73962C10.434 2.5799 10.2361 2.50004 10 2.50004C9.76389 2.50004 9.56597 2.5799 9.40625 2.73962C9.24653 2.89935 9.16667 3.09726 9.16667 3.33337C9.16667 3.56948 9.24653 3.7674 9.40625 3.92712C9.56597 4.08685 9.76389 4.16671 10 4.16671Z" fill="#003B5C"/>
  </g>
</svg>