<svg xmlns="http://www.w3.org/2000/svg" width="18" height="18" viewBox="0 0 18 18" fill="none">
  <path d="M7.83329 12.8333L13.7083 6.95829L12.5416 5.79163L7.83329 10.5L5.45829 8.12496L4.29163 9.29163L7.83329 12.8333ZM8.99996 17.3333C7.84718 17.3333 6.76385 17.1145 5.74996 16.677C4.73607 16.2395 3.85413 15.6458 3.10413 14.8958C2.35413 14.1458 1.76038 13.2638 1.32288 12.25C0.885376 11.2361 0.666626 10.1527 0.666626 8.99996C0.666626 7.84718 0.885376 6.76385 1.32288 5.74996C1.76038 4.73607 2.35413 3.85413 3.10413 3.10413C3.85413 2.35413 4.73607 1.76038 5.74996 1.32288C6.76385 0.885376 7.84718 0.666626 8.99996 0.666626C10.1527 0.666626 11.2361 0.885376 12.25 1.32288C13.2638 1.76038 14.1458 2.35413 14.8958 3.10413C15.6458 3.85413 16.2395 4.73607 16.677 5.74996C17.1145 6.76385 17.3333 7.84718 17.3333 8.99996C17.3333 10.1527 17.1145 11.2361 16.677 12.25C16.2395 13.2638 15.6458 14.1458 14.8958 14.8958C14.1458 15.6458 13.2638 16.2395 12.25 16.677C11.2361 17.1145 10.1527 17.3333 8.99996 17.3333ZM8.99996 15.6666C10.8611 15.6666 12.4375 15.0208 13.7291 13.7291C15.0208 12.4375 15.6666 10.8611 15.6666 8.99996C15.6666 7.13885 15.0208 5.56246 13.7291 4.27079C12.4375 2.97913 10.8611 2.33329 8.99996 2.33329C7.13885 2.33329 5.56246 2.97913 4.27079 4.27079C2.97913 5.56246 2.33329 7.13885 2.33329 8.99996C2.33329 10.8611 2.97913 12.4375 4.27079 13.7291C5.56246 15.0208 7.13885 15.6666 8.99996 15.6666Z" fill="#003B5C"/>
</svg>