<svg width="36" height="36" viewBox="0 0 36 36" fill="none" xmlns="http://www.w3.org/2000/svg">
<mask id="mask0_4557_2088" style="mask-type:alpha" maskUnits="userSpaceOnUse" x="0" y="0" width="36" height="36">
<rect width="36" height="36" fill="#D9D9D9"/>
</mask>
<g mask="url(#mask0_4557_2088)">
<path d="M9.07344 29.0246V30.3746C9.07344 30.8421 8.90469 31.234 8.56719 31.5502C8.22969 31.8665 7.81969 32.0246 7.33719 32.0246H5.63469C5.15219 32.0246 4.74219 31.8665 4.40469 31.5502C4.06719 31.234 3.89844 30.8421 3.89844 30.3746V17.9246L7.19844 8.62461C7.36444 8.12961 7.66194 7.73086 8.09094 7.42836C8.51994 7.12586 8.99744 6.97461 9.52344 6.97461H26.4734C26.9994 6.97461 27.4769 7.12586 27.9059 7.42836C28.3349 7.73086 28.6324 8.12961 28.7984 8.62461L32.0984 17.9246V30.3746C32.0984 30.8421 31.9297 31.234 31.5922 31.5502C31.2547 31.8665 30.8447 32.0246 30.3622 32.0246H28.6597C28.1772 32.0246 27.7672 31.8665 27.4297 31.5502C27.0922 31.234 26.9234 30.8421 26.9234 30.3746V29.0246H9.07344ZM8.62344 14.5496H27.3734L25.8734 10.3496H10.1234L8.62344 14.5496ZM11.1734 24.1496C11.8234 24.1496 12.3859 23.9121 12.8609 23.4371C13.3359 22.9621 13.5734 22.3996 13.5734 21.7496C13.5734 21.0996 13.3359 20.5371 12.8609 20.0621C12.3859 19.5871 11.8234 19.3496 11.1734 19.3496C10.5234 19.3496 9.96094 19.5871 9.48594 20.0621C9.01094 20.5371 8.77344 21.0996 8.77344 21.7496C8.77344 22.3996 9.01094 22.9621 9.48594 23.4371C9.96094 23.9121 10.5234 24.1496 11.1734 24.1496ZM24.8234 24.1496C25.4734 24.1496 26.0359 23.9121 26.5109 23.4371C26.9859 22.9621 27.2234 22.3996 27.2234 21.7496C27.2234 21.0996 26.9859 20.5371 26.5109 20.0621C26.0359 19.5871 25.4734 19.3496 24.8234 19.3496C24.1734 19.3496 23.6109 19.5871 23.1359 20.0621C22.6609 20.5371 22.4234 21.0996 22.4234 21.7496C22.4234 22.3996 22.6609 22.9621 23.1359 23.4371C23.6109 23.9121 24.1734 24.1496 24.8234 24.1496Z" fill="#EE2737"/>
</g>
</svg>
