<svg width="13" height="14" viewBox="0 0 13 14" fill="none" xmlns="http://www.w3.org/2000/svg">
<mask id="mask0_4565_2770" style="mask-type:alpha" maskUnits="userSpaceOnUse" x="0" y="0" width="13" height="14">
<rect y="0.5" width="13" height="13" fill="#D9D9D9"/>
</mask>
<g mask="url(#mask0_4565_2770)">
<path d="M7.4751 12.1998V9.31543L6.44593 8.2998L6.0126 10.4665L2.6001 9.77585L2.78968 8.82793L5.24072 9.31543L5.94489 5.75397L4.8751 6.21439V7.6498H3.9001V5.56439L6.40531 4.50814C6.48656 4.47203 6.57006 4.44494 6.65583 4.42689C6.74159 4.40883 6.82961 4.3998 6.91989 4.3998C7.16364 4.3998 7.38256 4.45623 7.57666 4.56908C7.77076 4.68192 7.931 4.84668 8.05739 5.06335L8.24697 5.3748C8.51781 5.83522 8.82475 6.16699 9.16781 6.37012C9.51086 6.57324 9.92163 6.6748 10.4001 6.6748V7.6498C9.88551 7.6498 9.40479 7.53696 8.95791 7.31126C8.51104 7.08557 8.12961 6.76508 7.81364 6.3498L7.50218 7.9748L8.4501 8.92272V12.1998H7.4751ZM7.8001 4.0748C7.48413 4.0748 7.21555 3.96421 6.99437 3.74303C6.77319 3.52185 6.6626 3.25328 6.6626 2.9373C6.6626 2.62133 6.77319 2.35276 6.99437 2.13158C7.21555 1.91039 7.48413 1.7998 7.8001 1.7998C8.11607 1.7998 8.38465 1.91039 8.60583 2.13158C8.82701 2.35276 8.9376 2.62133 8.9376 2.9373C8.9376 3.25328 8.82701 3.52185 8.60583 3.74303C8.38465 3.96421 8.11607 4.0748 7.8001 4.0748Z" fill="#1C1B1F"/>
</g>
</svg>
