<svg width="36" height="36" viewBox="0 0 36 36" fill="none" xmlns="http://www.w3.org/2000/svg">
<mask id="mask0_4557_2094" style="mask-type:alpha" maskUnits="userSpaceOnUse" x="0" y="0" width="36" height="36">
<rect width="36" height="36" fill="#D9D9D9"/>
</mask>
<g mask="url(#mask0_4557_2094)">
<path d="M1.01367 31.7246V25.2371C1.01367 24.2621 1.35742 23.4371 2.04492 22.7621C2.73242 22.0871 3.55117 21.7496 4.50117 21.7496H9.41367C9.78867 21.7496 10.1449 21.8371 10.4824 22.0121C10.8199 22.1871 11.1012 22.4496 11.3262 22.7996C12.1012 23.8996 13.0699 24.7496 14.2324 25.3496C15.3949 25.9496 16.6512 26.2496 18.0012 26.2496C19.3512 26.2496 20.6137 25.9496 21.7887 25.3496C22.9637 24.7496 23.9387 23.8996 24.7137 22.7996C24.9387 22.4496 25.2199 22.1871 25.5574 22.0121C25.8949 21.8371 26.2387 21.7496 26.5887 21.7496H31.5012C32.4762 21.7496 33.3012 22.0871 33.9762 22.7621C34.6512 23.4371 34.9887 24.2621 34.9887 25.2371V31.7246H23.5137V28.8746C22.6637 29.2996 21.7762 29.6309 20.8512 29.8684C19.9262 30.1059 18.9762 30.2246 18.0012 30.2246C17.0512 30.2246 16.1137 30.1059 15.1887 29.8684C14.2637 29.6309 13.3637 29.2996 12.4887 28.8746V31.7246H1.01367ZM18.0012 23.9996C17.1762 23.9996 16.3949 23.7996 15.6574 23.3996C14.9199 22.9996 14.3012 22.4746 13.8012 21.8246C13.3012 21.0996 12.6762 20.5371 11.9262 20.1371C11.1762 19.7371 10.3762 19.5246 9.52617 19.4996C10.3262 18.6996 11.5699 18.0434 13.2574 17.5309C14.9449 17.0184 16.5262 16.7621 18.0012 16.7621C19.5012 16.7621 21.0949 17.0184 22.7824 17.5309C24.4699 18.0434 25.7137 18.6996 26.5137 19.4996C25.6387 19.5246 24.8324 19.7371 24.0949 20.1371C23.3574 20.5371 22.7387 21.0996 22.2387 21.8246C21.7637 22.4996 21.1512 23.0309 20.4012 23.4184C19.6512 23.8059 18.8512 23.9996 18.0012 23.9996ZM6.00117 18.7496C4.62617 18.7496 3.45117 18.2621 2.47617 17.2871C1.50117 16.3121 1.01367 15.1371 1.01367 13.7621C1.01367 12.3621 1.50117 11.1809 2.47617 10.2184C3.45117 9.25586 4.62617 8.77461 6.00117 8.77461C7.40117 8.77461 8.58242 9.25586 9.54492 10.2184C10.5074 11.1809 10.9887 12.3621 10.9887 13.7621C10.9887 15.1371 10.5074 16.3121 9.54492 17.2871C8.58242 18.2621 7.40117 18.7496 6.00117 18.7496ZM30.0012 18.7496C28.6262 18.7496 27.4512 18.2621 26.4762 17.2871C25.5012 16.3121 25.0137 15.1371 25.0137 13.7621C25.0137 12.3621 25.5012 11.1809 26.4762 10.2184C27.4512 9.25586 28.6262 8.77461 30.0012 8.77461C31.4012 8.77461 32.5824 9.25586 33.5449 10.2184C34.5074 11.1809 34.9887 12.3621 34.9887 13.7621C34.9887 15.1371 34.5074 16.3121 33.5449 17.2871C32.5824 18.2621 31.4012 18.7496 30.0012 18.7496ZM18.0012 13.7621C16.6262 13.7621 15.4512 13.2746 14.4762 12.2996C13.5012 11.3246 13.0137 10.1496 13.0137 8.77461C13.0137 7.37461 13.5012 6.19336 14.4762 5.23086C15.4512 4.26836 16.6262 3.78711 18.0012 3.78711C19.4012 3.78711 20.5824 4.26836 21.5449 5.23086C22.5074 6.19336 22.9887 7.37461 22.9887 8.77461C22.9887 10.1496 22.5074 11.3246 21.5449 12.2996C20.5824 13.2746 19.4012 13.7621 18.0012 13.7621Z" fill="#EE2737"/>
</g>
</svg>
