<svg width="48" height="49" viewBox="0 0 48 49" fill="none" xmlns="http://www.w3.org/2000/svg">
<mask id="mask0_4565_3781" style="mask-type:alpha" maskUnits="userSpaceOnUse" x="0" y="0" width="48" height="49">
<rect y="0.864258" width="48" height="48" fill="#D9D9D9"/>
</mask>
<g mask="url(#mask0_4565_3781)">
<path d="M24.0041 45.8055C21.1308 45.8055 18.4153 45.2607 15.8576 44.171C13.2996 43.0814 11.0683 41.5892 9.16359 39.6945C7.25893 37.7995 5.76526 35.573 4.68259 33.015C3.59993 30.457 3.05859 27.7414 3.05859 24.868C3.05859 21.9947 3.60343 19.2792 4.69309 16.7215C5.78276 14.1635 7.27359 11.9317 9.16559 10.026C11.0573 8.12036 13.2829 6.62203 15.8426 5.53103C18.4019 4.44003 21.1189 3.89453 23.9936 3.89453C26.8686 3.89453 29.5861 4.44287 32.1461 5.53953C34.7061 6.63587 36.9383 8.1307 38.8426 10.024C40.7469 11.9174 42.2443 14.1447 43.3346 16.706C44.4246 19.2677 44.9696 21.987 44.9696 24.864C44.9696 27.74 44.4206 30.4567 43.3226 33.014C42.2246 35.5717 40.7278 37.8017 38.8321 39.704C36.9361 41.6064 34.7091 43.0989 32.1511 44.1815C29.5931 45.2642 26.8774 45.8055 24.0041 45.8055ZM24.0001 35.2575C25.4088 33.8732 26.6566 32.4339 27.7436 30.9395C28.6683 29.6632 29.5251 28.2535 30.3141 26.7105C31.1034 25.1672 31.4981 23.6392 31.4981 22.1265C31.4981 20.0979 30.7578 18.347 29.2771 16.874C27.7968 15.4007 26.0378 14.664 24.0001 14.664C21.9624 14.664 20.2118 15.4007 18.7481 16.874C17.2841 18.347 16.5521 20.0917 16.5521 22.108C16.5521 23.63 16.9363 25.163 17.7046 26.707C18.4729 28.251 19.3229 29.6615 20.2546 30.9385C21.3619 32.4322 22.6104 33.8719 24.0001 35.2575ZM24.0001 24.9315C23.2451 24.9315 22.5911 24.6607 22.0381 24.119C21.4851 23.5777 21.2086 22.9237 21.2086 22.157C21.2086 21.39 21.4851 20.7302 22.0381 20.1775C22.5911 19.6252 23.2451 19.349 24.0001 19.349C24.7551 19.349 25.4174 19.6229 25.9871 20.1705C26.5568 20.7182 26.8416 21.3749 26.8416 22.1405C26.8416 22.9065 26.5603 23.5632 25.9976 24.1105C25.4349 24.6579 24.7691 24.9315 24.0001 24.9315Z" fill="#003B5C"/>
</g>
</svg>
