<svg width="40" height="34" viewBox="0 0 40 34" fill="none" xmlns="http://www.w3.org/2000/svg">
<g clip-path="url(#clip0_4110_822)">
<path d="M32.2676 0.1875L33.9229 5.22461H21.9072L21.0029 0.1875H32.2676Z" fill="#003B5C" stroke="white" stroke-width="0.355888"/>
<path d="M13.4863 0.1875L12.583 5.22461H0.566406L2.22266 0.1875H13.4863Z" fill="#003B5C" stroke="white" stroke-width="0.355888"/>
<path d="M12.5557 6.39746V11.8555L12.8037 11.75L17.1943 9.87988L21.8545 11.7607L22.0996 11.8594V6.39746H34.3164V15.8691C34.3105 15.8691 34.3047 15.8691 34.2988 15.8691C30.6103 15.8691 27.6143 18.911 27.6143 22.6445C27.6143 25.2737 28.6408 28.0563 30.6455 30.9082C31.5677 32.2188 32.4858 33.2322 33.0576 33.8223H0.177734V6.39746H12.5557ZM4.6748 29.3281C4.3518 29.3281 4.09375 29.5936 4.09375 29.915C4.09387 30.2364 4.35187 30.501 4.6748 30.501H10.3691C10.6921 30.501 10.9501 30.2364 10.9502 29.915C10.9502 29.5936 10.6921 29.3281 10.3691 29.3281H4.6748ZM4.6748 26.6318C4.3518 26.6318 4.09375 26.8973 4.09375 27.2188C4.0939 27.5401 4.35189 27.8047 4.6748 27.8047H16.2803C16.603 27.8044 16.8602 27.54 16.8604 27.2188C16.8604 26.8974 16.6031 26.6321 16.2803 26.6318H4.6748ZM23.0898 14.8779L11.2637 14.8975C10.1962 14.8993 9.33691 15.7735 9.33691 16.8516C9.33697 17.9296 10.1992 18.8055 11.2666 18.8057L23.0928 18.8027C24.1011 18.8027 24.9239 18.0196 25.0127 17.0264H25.0234V16.832C25.0234 15.821 24.2636 14.988 23.2881 14.8877L23.0898 14.8779Z" fill="#003B5C" stroke="white" stroke-width="0.355888"/>
<path d="M34.2988 17.04C37.3463 17.04 39.8223 19.5455 39.8223 22.6426C39.8222 25.4927 38.4214 28.2105 37.0039 30.2275C36.2969 31.2336 35.5891 32.0601 35.0586 32.6348C34.7936 32.9218 34.573 33.1459 34.4189 33.2979C34.3732 33.343 34.3323 33.3809 34.2988 33.4131C34.2654 33.3809 34.2245 33.343 34.1787 33.2979C34.0246 33.1459 33.8041 32.9218 33.5391 32.6348C33.0086 32.0601 32.3008 31.2336 31.5938 30.2275C30.1763 28.2105 28.7755 25.4927 28.7754 22.6426C28.7754 19.547 31.2499 17.04 34.2988 17.04ZM34.2988 18.8818C32.219 18.8818 30.5314 20.5966 30.5312 22.6992C30.5312 24.8019 32.2189 26.5166 34.2988 26.5166C36.3788 26.5166 38.0664 24.8019 38.0664 22.6992C38.0663 20.5966 36.3787 18.8818 34.2988 18.8818Z" fill="#003B5C" stroke="white" stroke-width="0.355888"/>
</g>
<defs>
<clipPath id="clip0_4110_822">
<rect width="40" height="34" fill="white"/>
</clipPath>
</defs>
</svg>
