<svg width="13" height="17" viewBox="0 0 13 17" fill="none" xmlns="http://www.w3.org/2000/svg">
<path d="M10.4857 11.473C10.0005 11.473 9.54866 11.6172 9.16763 11.8651L5.32208 9.1205C5.38381 8.90019 5.41756 8.66781 5.41756 8.42726C5.41756 8.18668 5.38381 7.9543 5.32208 7.73402L9.06381 5.06353C9.46529 5.35504 9.95566 5.52704 10.4856 5.52704C11.8436 5.52704 12.9444 4.40169 12.9444 3.01354C12.9444 1.62538 11.8436 0.5 10.4857 0.5C9.12773 0.5 8.02688 1.62535 8.02688 3.0135C8.02688 3.19683 8.04661 3.37538 8.08306 3.54755L4.24631 6.28586C3.87179 6.05006 3.43094 5.91376 2.95878 5.91376C1.60085 5.91376 0.5 7.03911 0.5 8.42726C0.5 9.81541 1.60082 10.9408 2.95878 10.9408C3.4309 10.9408 3.87179 10.8045 4.24631 10.5687L8.11268 13.3281C8.05708 13.538 8.02688 13.7586 8.02688 13.9865C8.02688 15.3747 9.12773 16.5 10.4857 16.5C11.8436 16.5 12.9444 15.3747 12.9444 13.9865C12.9444 12.5983 11.8436 11.473 10.4857 11.473Z" fill="white"/>
</svg>
