<svg xmlns="http://www.w3.org/2000/svg" width="20" height="20" viewBox="0 0 20 20" fill="none">
  <mask id="mask0_99_3288" style="mask-type:alpha" maskUnits="userSpaceOnUse" x="0" y="0" width="20" height="20">
    <rect width="20" height="20" fill="#D9D9D9"/>
  </mask>
  <g mask="url(#mask0_99_3288)">
    <path d="M5.00004 15.8333C4.3056 15.8333 3.71532 15.5902 3.22921 15.1041C2.7431 14.618 2.50004 14.0277 2.50004 13.3333H0.833374V5.83329C0.833374 5.37496 0.996569 4.9826 1.32296 4.65621C1.64935 4.32982 2.04171 4.16663 2.50004 4.16663H14.1667L19.1667 9.16663V13.3333H17.5C17.5 14.0277 17.257 14.618 16.7709 15.1041C16.2848 15.5902 15.6945 15.8333 15 15.8333C14.3056 15.8333 13.7153 15.5902 13.2292 15.1041C12.7431 14.618 12.5 14.0277 12.5 13.3333H7.50004C7.50004 14.0277 7.25699 14.618 6.77087 15.1041C6.28476 15.5902 5.69449 15.8333 5.00004 15.8333ZM12.5 8.33329H15.8334L13.3334 5.83329H12.5V8.33329ZM7.50004 8.33329H10.8334V5.83329H7.50004V8.33329ZM2.50004 8.33329H5.83337V5.83329H2.50004V8.33329ZM5.00004 14.375C5.29171 14.375 5.53824 14.2743 5.73962 14.0729C5.94101 13.8715 6.04171 13.625 6.04171 13.3333C6.04171 13.0416 5.94101 12.7951 5.73962 12.5937C5.53824 12.3923 5.29171 12.2916 5.00004 12.2916C4.70837 12.2916 4.46185 12.3923 4.26046 12.5937C4.05907 12.7951 3.95837 13.0416 3.95837 13.3333C3.95837 13.625 4.05907 13.8715 4.26046 14.0729C4.46185 14.2743 4.70837 14.375 5.00004 14.375ZM15 14.375C15.2917 14.375 15.5382 14.2743 15.7396 14.0729C15.941 13.8715 16.0417 13.625 16.0417 13.3333C16.0417 13.0416 15.941 12.7951 15.7396 12.5937C15.5382 12.3923 15.2917 12.2916 15 12.2916C14.7084 12.2916 14.4618 12.3923 14.2605 12.5937C14.0591 12.7951 13.9584 13.0416 13.9584 13.3333C13.9584 13.625 14.0591 13.8715 14.2605 14.0729C14.4618 14.2743 14.7084 14.375 15 14.375ZM2.50004 11.6666H3.16671C3.40282 11.4166 3.67365 11.2152 3.97921 11.0625C4.28476 10.9097 4.62504 10.8333 5.00004 10.8333C5.37504 10.8333 5.71532 10.9097 6.02087 11.0625C6.32643 11.2152 6.59726 11.4166 6.83337 11.6666H13.1667C13.4028 11.4166 13.6737 11.2152 13.9792 11.0625C14.2848 10.9097 14.625 10.8333 15 10.8333C15.375 10.8333 15.7153 10.9097 16.0209 11.0625C16.3264 11.2152 16.5973 11.4166 16.8334 11.6666H17.5V9.99996H2.50004V11.6666Z" fill="#003B5C"/>
  </g>
</svg>