<svg width="48" height="49" viewBox="0 0 48 49" fill="none" xmlns="http://www.w3.org/2000/svg">
<mask id="mask0_4565_3787" style="mask-type:alpha" maskUnits="userSpaceOnUse" x="0" y="0" width="48" height="49">
<rect y="0.864258" width="48" height="48" fill="#D9D9D9"/>
</mask>
<g mask="url(#mask0_4565_3787)">
<path d="M23.9811 45.8055C21.1201 45.8055 18.4116 45.259 15.8556 44.166C13.2996 43.0734 11.0743 41.5795 9.17959 39.6845C7.28459 37.7899 5.79076 35.5635 4.69809 33.0055C3.60509 30.4479 3.05859 27.7354 3.05859 24.868C3.05859 21.9707 3.60609 19.2482 4.70109 16.7005C5.79576 14.1525 7.29543 11.9264 9.20009 10.022C11.1044 8.1177 13.3286 6.62037 15.8726 5.53003C18.4166 4.4397 21.1163 3.89453 23.9716 3.89453C26.8723 3.89453 29.6033 4.43887 32.1646 5.52753C34.7256 6.61587 36.9536 8.11103 38.8486 10.013C40.7439 11.9147 42.2379 14.143 43.3306 16.698C44.4233 19.253 44.9696 21.984 44.9696 24.891C44.9696 27.7637 44.4244 30.468 43.3341 33.004C42.2438 35.54 40.7464 37.7602 38.8421 39.6645C36.9378 41.5689 34.7104 43.0684 32.1601 44.163C29.6101 45.258 26.8838 45.8055 23.9811 45.8055ZM24.0066 39.079C24.6706 39.079 25.2499 38.8812 25.7446 38.4855C26.2396 38.0895 26.5819 37.5795 26.7716 36.9555H21.2786C21.4349 37.5655 21.7669 38.072 22.2746 38.475C22.7823 38.8777 23.3596 39.079 24.0066 39.079ZM17.7286 33.588H30.3501V30.966H17.7286V33.588ZM18.1076 28.627H29.9011C31.0974 27.746 32.0674 26.6149 32.8111 25.2335C33.5544 23.8522 33.9261 22.3594 33.9261 20.755C33.9261 18.024 32.9583 15.6909 31.0226 13.7555C29.0873 11.8205 26.7464 10.853 24.0001 10.853C21.2144 10.853 18.8768 11.8172 16.9871 13.7455C15.0971 15.6742 14.1521 18.0065 14.1521 20.7425C14.1521 22.3539 14.5109 23.8505 15.2286 25.2325C15.9459 26.6145 16.9056 27.746 18.1076 28.627ZM19.1196 26.0055C18.3283 25.2432 17.7396 24.4117 17.3536 23.511C16.9673 22.6104 16.7741 21.689 16.7741 20.747C16.7741 18.7474 17.4726 17.0354 18.8696 15.611C20.2666 14.187 21.9718 13.475 23.9851 13.475C25.9984 13.475 27.7216 14.1887 29.1546 15.616C30.5879 17.0434 31.3046 18.7584 31.3046 20.761C31.3046 21.6924 31.1016 22.6075 30.6956 23.5065C30.2899 24.4059 29.7031 25.2389 28.9351 26.0055H19.1196Z" fill="#003B5C"/>
</g>
</svg>
