<svg width="10" height="10" viewBox="0 0 10 10" fill="none" xmlns="http://www.w3.org/2000/svg">
<mask id="mask0_4565_2745" style="mask-type:alpha" maskUnits="userSpaceOnUse" x="0" y="0" width="10" height="10">
<rect width="10" height="10" fill="#D9D9D9"/>
</mask>
<g mask="url(#mask0_4565_2745)">
<path d="M5.00219 5C5.20906 5 5.38542 4.92635 5.53125 4.77906C5.67708 4.63177 5.75 4.45469 5.75 4.24781C5.75 4.04094 5.67635 3.86458 5.52906 3.71875C5.38177 3.57292 5.20469 3.5 4.99781 3.5C4.79094 3.5 4.61458 3.57365 4.46875 3.72094C4.32292 3.86823 4.25 4.04531 4.25 4.25219C4.25 4.45906 4.32365 4.63542 4.47094 4.78125C4.61823 4.92708 4.79531 5 5.00219 5ZM5 9C3.90993 8.08951 3.09573 7.24385 2.5574 6.46302C2.01913 5.68212 1.75 4.95486 1.75 4.28125C1.75 3.35069 2.05903 2.57118 2.67708 1.94271C3.29514 1.31424 4.06771 1 4.99479 1C5.92188 1 6.69618 1.31424 7.31771 1.94271C7.93924 2.57118 8.25 3.35069 8.25 4.28125C8.25 4.95486 7.98264 5.68056 7.44792 6.45833C6.91319 7.23611 6.09722 8.08333 5 9Z" fill="#1C1B1F"/>
</g>
</svg>
