<svg width="48" height="49" viewBox="0 0 48 49" fill="none" xmlns="http://www.w3.org/2000/svg">
<mask id="mask0_4562_1542" style="mask-type:alpha" maskUnits="userSpaceOnUse" x="0" y="0" width="48" height="49">
<rect y="0.864258" width="48" height="48" fill="#D9D9D9"/>
</mask>
<g mask="url(#mask0_4562_1542)">
<path d="M18.3128 31.2728L23.9998 27.1078L29.5648 31.2728L27.2713 24.5358L32.9368 20.4428H26.0888L23.9998 13.7338L21.9108 20.4428H15.0913L20.6283 24.5358L18.3128 31.2728ZM23.9978 45.8058C19.0734 44.5824 15.0181 41.7438 11.8318 37.2898C8.64509 32.8354 7.05176 27.9811 7.05176 22.7268V10.2003L23.9998 3.82275L40.9758 10.2013V22.7178C40.9758 27.9744 39.3773 32.8308 36.1803 37.2868C32.9833 41.7428 28.9224 44.5824 23.9978 45.8058Z" fill="#003B5C"/>
</g>
</svg>
