<svg width="207" height="55" viewBox="0 0 207 55" fill="none" xmlns="http://www.w3.org/2000/svg">
<path d="M63.4786 28.5688L68.0634 6.69145H78.7615C89.4963 6.69145 86.7527 22.6952 76.1284 22.6952H71.0095L69.7943 28.5688H63.4602H63.4786ZM81.4682 28.5688L94.3573 6.69145H101.06L104.798 28.5688H98.2057L97.4323 23.9033H90.8404L88.0785 28.5688H81.4866H81.4682ZM92.6081 19.3309H97.4507L96.3828 12.8996L92.6081 19.3309ZM107.302 28.5688L111.887 6.69145H123.155C132.159 6.69145 130.871 17.881 123.892 20.9294C124.426 21.4126 124.573 22.1561 124.739 22.8253L126.046 28.5688H119.454L118.239 23.3085C118.037 22.4349 117.576 22.1933 116.729 22.1933H114.943L113.636 28.5874H107.302V28.5688ZM115.993 17.2862H119.325C123.008 17.2862 124.647 11.5799 120.743 11.5799H117.208L115.993 17.2862ZM127.482 28.5688L140.372 6.69145H147.074L150.812 28.5688H144.22L143.447 23.9033H136.855L134.093 28.5688H127.501H127.482ZM138.622 19.3309H143.465L142.379 12.8996L138.604 19.3309H138.622ZM163.572 27.5465L164.677 22.2862C166.574 23.2714 174.178 25.4461 174.915 22.2862C175.688 19.1822 165.598 20.7621 166.205 13.7732C166.702 8.01115 171.803 6.35688 176.774 6.35688C178.781 6.35688 181.396 6.67286 183.311 7.34201L182.206 12.6394C180.439 11.8587 173.46 10.2045 172.816 12.9182C172.245 14.6283 178.708 15.316 180.494 17.342C181.838 18.8662 181.764 20.4647 181.396 22.3048C180.273 27.8067 175.449 28.9591 170.606 28.9405C167.991 28.9405 165.303 28.4944 163.591 27.5836L163.572 27.5465ZM193.144 28.9033C185.613 28.9033 182.998 24.7212 184.453 17.6952C186.11 9.98141 189.977 6.33829 197.913 6.33829C205.849 6.33829 208.021 10.5948 206.604 17.6952C205.002 25.316 200.914 28.9033 193.144 28.9033ZM194.285 23.4758C198.005 23.4758 199.441 21.0595 200.141 17.6952C200.803 14.4796 200.969 11.7844 196.771 11.7844C192.941 11.7844 191.671 14.2751 190.916 17.6952C190.253 20.8922 189.995 23.4758 194.285 23.4758ZM153.316 28.5688L157.901 6.69145H164.235L159.65 28.5688H153.316ZM165.432 0.873606H164.64C162.633 0.873606 159.006 1.87732 158.306 4.68401H164.64L165.432 0.873606ZM27.2232 0C42.2667 0 54.4562 12.3048 54.4562 27.4907C54.4562 27.8439 54.4562 28.2156 54.4378 28.5688H33.6494C33.2075 28.5688 32.8024 28.2156 32.8024 27.7695L32.6182 21.0967C32.6182 20.6877 32.876 20.3532 33.2443 20.223L39.56 17.9926C40.407 17.6952 40.3886 16.5427 39.56 16.2454L33.0049 13.829C32.6367 13.6803 32.3973 13.3643 32.3789 12.9554L32.1763 5.98513C32.1579 5.09294 31.0715 4.73978 30.5191 5.4461L26.2289 10.9851C25.9895 11.3011 25.6028 11.4312 25.2162 11.3197L18.569 9.34944C17.722 9.08922 17.0408 10.0186 17.5563 10.7621L21.4231 16.5056C21.644 16.8401 21.644 17.2491 21.4231 17.5836L17.5563 23.4387C17.0592 24.1822 17.722 25.1115 18.569 24.8513L24.9952 22.9926C25.3819 22.881 25.787 22.9926 26.0079 23.3271L28.8988 27.658C29.175 28.0855 28.9172 28.5502 28.5305 28.5502H0.00864747C0.00864747 28.197 -0.00976562 27.8253 -0.00976562 27.4721C-0.00976562 12.3048 12.1797 0 27.2232 0ZM72.0591 17.7881H75.3182C79.2954 17.7881 80.5843 11.5613 76.7913 11.5613H73.3664L72.0591 17.7881Z" fill="#003B5C"/>
<path fill-rule="evenodd" clip-rule="evenodd" d="M47.717 45.6505H13.1188C9.62034 45.6505 5.44057 44.6096 3.61767 41.2824H42.635C47.717 41.2824 48.1037 44.9256 47.717 45.6505ZM52.6333 37.3791H7.96316C5.60629 37.3791 1.33445 36.2081 0.505859 32.8995H47.2015C52.5965 32.8995 52.7806 36.7843 52.6333 37.3791ZM130.797 39.9999H139.249L139.488 38.8847C139.727 37.7694 139.635 36.9144 139.193 36.2824C138.751 35.6505 137.775 35.3531 136.247 35.3531C134.535 35.3531 133.283 35.7248 132.491 36.4683C131.699 37.2118 131.128 38.4014 130.797 39.9999ZM114.133 48.9962L117.503 32.881H120.872L120.707 34.7583C121.554 34.2564 122.548 33.8103 123.689 33.4014C124.831 32.9925 125.936 32.7137 127.004 32.5464L126.433 35.3717C125.789 35.4832 125.07 35.6505 124.297 35.8735C123.524 36.0966 122.769 36.3196 122.051 36.5798C121.333 36.8401 120.725 37.1003 120.228 37.3791L117.797 48.9962H114.133ZM102.643 46.5613C104.208 46.5613 105.479 46.1152 106.418 45.2416C107.357 44.3494 108.038 42.9181 108.48 40.9293C108.885 39.0334 108.867 37.6207 108.443 36.7285C108.02 35.8363 106.915 35.3903 105.111 35.3903C103.453 35.3903 101.962 35.9665 100.636 37.0817L98.9607 45.13C99.3658 45.5575 99.8629 45.9107 100.452 46.1709C101.041 46.4311 101.778 46.5613 102.662 46.5613H102.643ZM93.271 54.9999L97.8191 32.8995H100.986L100.857 34.4981C101.704 33.8475 102.588 33.3456 103.509 33.0297C104.429 32.7137 105.479 32.5464 106.639 32.5464C108.075 32.5464 109.272 32.8438 110.248 33.4386C111.205 34.0334 111.868 34.9442 112.237 36.1709C112.605 37.3977 112.568 38.9962 112.163 40.9479C111.555 43.8475 110.506 45.9665 108.996 47.3233C107.486 48.6802 105.479 49.3494 102.975 49.3494C101.041 49.3494 99.4947 48.9033 98.3346 47.9925L96.9352 54.9999H93.271ZM75.3735 48.9962L83.1807 40.7992L78.9641 32.881H82.9045L85.7032 38.2527L90.7116 32.881H94.652L87.1763 40.7992L91.5218 48.9962H87.5446L84.6169 43.3828L79.3323 48.9962H75.3551H75.3735ZM64.0126 39.9999H72.4642L72.7036 38.8847C72.943 37.7694 72.8509 36.9144 72.409 36.2824C71.9671 35.6505 70.9912 35.3531 69.4629 35.3531C67.7505 35.3531 66.4984 35.7248 65.7066 36.4683C64.9149 37.2118 64.3441 38.4014 64.0126 39.9999ZM67.2717 49.3494C65.5225 49.3494 64.0495 49.052 62.871 48.4386C61.6926 47.8252 60.864 46.8958 60.4037 45.6505C59.9249 44.4051 59.9065 42.8252 60.3116 40.9293C60.8456 38.3456 61.8767 36.301 63.3866 34.814C64.8965 33.3271 67.0876 32.565 69.9416 32.565C71.5436 32.565 72.7957 32.8624 73.7532 33.4758C74.6922 34.0891 75.3367 34.907 75.6865 35.9479C76.0364 36.9888 76.0732 38.1412 75.797 39.4051L75.1894 42.3977H63.5155C63.3498 43.959 63.6444 45.0371 64.3993 45.6319C65.1358 46.2267 66.5536 46.5241 68.6343 46.5241C69.4445 46.5241 70.2915 46.4497 71.1569 46.2824C72.0407 46.1152 72.8141 45.9293 73.5138 45.6691L72.943 48.3828C72.1512 48.6988 71.2858 48.9404 70.3099 49.0891C69.3524 49.2564 68.3397 49.3308 67.2717 49.3308V49.3494ZM165.321 49.3494C164.217 49.3494 163.186 49.275 162.228 49.1077C161.271 48.9404 160.479 48.7546 159.871 48.5315L160.552 45.4088C161.252 45.7062 162.044 45.9293 162.928 46.0966C163.812 46.2639 164.677 46.3382 165.506 46.3382C166.942 46.3382 169.188 46.4497 169.612 44.6653C169.722 44.1821 169.649 43.8103 169.372 43.5501C168.617 42.788 166.555 42.3419 165.524 41.9888C164.64 41.6728 163.904 41.3196 163.278 40.9479C162.652 40.5761 162.228 40.0929 161.989 39.4981C161.749 38.9033 161.713 38.1412 161.897 37.1932C162.21 35.7248 162.946 34.5724 164.125 33.7732C165.285 32.9739 167.108 32.565 169.538 32.565C170.459 32.565 171.324 32.6393 172.116 32.7694C172.908 32.8995 173.589 33.0668 174.16 33.2713L173.515 36.3568C172.963 36.1152 172.3 35.9107 171.564 35.7806C170.827 35.6505 170.127 35.5761 169.483 35.5761C168.194 35.5761 165.745 35.4832 165.395 37.1003C165.266 37.7323 165.45 38.3828 166.003 38.643C166.555 38.9033 167.734 39.275 169.023 39.7211C170.183 40.1114 171.103 40.5204 171.748 40.9479C172.392 41.3754 172.816 41.8958 173.018 42.4906C173.221 43.0854 173.258 43.6802 173.055 44.6282C172.724 46.2081 171.95 47.3977 170.753 48.1784C169.556 48.959 167.752 49.3494 165.358 49.3494H165.321ZM149.744 49.3494C148.639 49.3494 147.608 49.275 146.651 49.1077C145.693 48.9404 144.901 48.7546 144.294 48.5315L144.975 45.4088C145.675 45.7062 146.466 45.9293 147.35 46.0966C148.234 46.2639 149.1 46.3382 149.928 46.3382C151.364 46.3382 153.611 46.4497 154.034 44.6653C154.145 44.1821 154.071 43.8103 153.795 43.5501C153.04 42.788 150.978 42.3419 149.947 41.9888C149.063 41.6728 148.326 41.3196 147.7 40.9479C147.074 40.5761 146.651 40.0929 146.411 39.4981C146.172 38.9033 146.135 38.1412 146.319 37.1932C146.632 35.7248 147.369 34.5724 148.547 33.7732C149.707 32.9739 151.512 32.565 153.961 32.565C154.881 32.565 155.747 32.6393 156.538 32.7694C157.33 32.8995 158.011 33.0668 158.582 33.2713L157.938 36.3568C157.385 36.1152 156.723 35.9107 155.986 35.7806C155.25 35.6505 154.55 35.5761 153.905 35.5761C152.616 35.5761 150.167 35.4832 149.818 37.1003C149.689 37.7323 149.873 38.3828 150.425 38.643C150.978 38.9033 152.156 39.275 153.445 39.7211C154.605 40.1114 155.526 40.5204 156.17 40.9479C156.815 41.3754 157.238 41.8958 157.441 42.4906C157.643 43.0854 157.68 43.6802 157.477 44.6282C157.146 46.2081 156.373 47.3977 155.176 48.1784C153.979 48.959 152.175 49.3494 149.781 49.3494H149.744ZM134.056 49.3494C132.307 49.3494 130.834 49.052 129.655 48.4386C128.477 47.8252 127.648 46.8958 127.188 45.6505C126.709 44.4051 126.691 42.8252 127.096 40.9293C127.63 38.3456 128.661 36.301 130.171 34.814C131.681 33.3271 133.872 32.565 136.726 32.565C138.328 32.565 139.58 32.8624 140.537 33.4758C141.477 34.0891 142.121 34.907 142.471 35.9479C142.821 36.9888 142.857 38.1412 142.581 39.4051L141.974 42.3977H130.3C130.134 43.959 130.429 45.0371 131.184 45.6319C131.92 46.2267 133.338 46.5241 135.419 46.5241C136.229 46.5241 137.076 46.4497 137.941 46.2824C138.825 46.1152 139.598 45.9293 140.298 45.6691L139.727 48.3828C138.936 48.6988 138.07 48.9404 137.094 49.0891C136.137 49.2564 135.124 49.3308 134.056 49.3308V49.3494ZM38.5473 52.4534C35.0857 54.0705 31.2189 54.9813 27.1312 54.9813C21.1101 54.9813 15.5678 53.0111 11.075 49.6653H39.6705C41.0147 49.6653 41.7144 50.9665 38.5473 52.4534Z" fill="#EE2737"/>
</svg>
