<svg width="41" height="41" viewBox="0 0 41 41" fill="none" xmlns="http://www.w3.org/2000/svg">
<path d="M20.8848 0.250977C31.9049 0.251017 40.8389 9.18756 40.8389 20.2109V20.3018C40.8388 31.3251 31.9049 40.2617 20.8848 40.2617H20.7939C9.7738 40.2617 0.839865 31.3251 0.839844 20.3018V20.2109C0.839844 9.18754 9.77379 0.250977 20.7939 0.250977H20.8848ZM21.6514 9.41895V24.2559C21.6556 24.3231 21.6562 24.3907 21.6562 24.458C21.6562 26.2536 20.1945 27.7158 18.3994 27.7158C16.6045 27.7156 15.1436 26.2549 15.1436 24.458C15.1436 22.6611 16.6045 21.2004 18.3994 21.2002C18.7818 21.2002 19.1494 21.2658 19.4912 21.3877V17.665C19.1354 17.6076 18.7707 17.5781 18.3994 17.5781C14.6076 17.5784 11.5234 20.6664 11.5234 24.458C11.5235 28.2496 14.6076 31.3357 18.3994 31.3359C22.1914 31.3359 25.2763 28.2497 25.2764 24.458C25.2764 24.3025 25.2705 24.1484 25.2607 23.9971L25.2764 24.0205V16.3848C25.8803 16.8656 26.8022 17.4872 28.041 17.9414C28.9897 18.289 29.8478 18.4384 30.5078 18.5029V14.7285C29.9165 14.6262 29.0812 14.4084 28.1914 13.9053C27.2413 13.3656 26.5637 12.6901 26.1055 12.1084C25.7146 11.6136 25.491 11.0092 25.4658 10.3799C25.4518 10.0605 25.4388 9.73833 25.4248 9.41895H21.6514Z" fill="white"/>
</svg>
