<svg width="39" height="39" viewBox="0 0 39 39" fill="none" xmlns="http://www.w3.org/2000/svg">
<path d="M19.6748 0.0898438C30.2601 0.09002 38.8408 8.67149 38.8408 19.2568C38.8406 29.842 30.26 38.4227 19.6748 38.4229C9.08946 38.4229 0.507989 29.8421 0.507812 19.2568C0.507812 8.67138 9.08935 0.0898438 19.6748 0.0898438ZM21.4248 7.11133C17.4214 7.11147 16.5109 10.0947 16.5107 12.002V14.1123H14.1953V18.7793H16.5312V30.4453H21.2012C21.2012 30.4453 21.2012 24.0038 21.2012 18.7793H24.667L24.835 16.9463L25.0918 14.1133H21.3799V12.2461C21.3801 11.3395 21.9865 11.1261 22.4131 11.126H25.0332V7.12793L21.4248 7.11133Z" fill="white"/>
</svg>
