<svg width="41" height="41" viewBox="0 0 41 41" fill="none" xmlns="http://www.w3.org/2000/svg">
<path d="M20.8848 0.250977C31.9048 0.251021 40.8388 9.18764 40.8389 20.2109V20.3018C40.8389 31.3251 31.9049 40.2617 20.8848 40.2617H20.7939C9.77379 40.2617 0.839844 31.3252 0.839844 20.3018V20.2109C0.83993 9.18761 9.77384 0.250977 20.7939 0.250977H20.8848ZM14.6514 8.3916C11.2324 8.39184 8.4514 11.1738 8.45117 14.5938V25.9199C8.45117 29.3401 11.2323 32.1228 14.6514 32.123H27.0283C30.4476 32.123 33.2295 29.3402 33.2295 25.9199V14.5938C33.2293 11.1737 30.4475 8.3916 27.0283 8.3916H14.6514ZM27.0283 10.5791C29.2409 10.5791 31.0418 12.3806 31.042 14.5938V25.9199C31.042 28.1333 29.241 29.9346 27.0283 29.9346H14.6514C12.4388 29.9343 10.6387 28.1332 10.6387 25.9199V14.5938C10.6389 12.3807 12.439 10.5793 14.6514 10.5791H27.0283ZM20.8398 14.4863C17.6589 14.4865 15.0723 17.0739 15.0723 20.2559C15.0723 23.4378 17.6589 26.0253 20.8398 26.0254C24.0195 26.0254 26.6084 23.4378 26.6084 20.2559C26.6084 17.0739 24.0209 14.4863 20.8398 14.4863ZM20.8398 16.6758C22.8142 16.6758 24.4207 18.2819 24.4209 20.2568C24.4209 22.2319 22.8143 23.8389 20.8398 23.8389C18.8655 23.8387 17.2598 22.2318 17.2598 20.2568C17.26 18.282 18.8656 16.6759 20.8398 16.6758ZM27.1416 12.3096C26.2841 12.3098 25.5879 13.0065 25.5879 13.8643C25.5881 14.7218 26.2843 15.4178 27.1416 15.418C27.9977 15.418 28.6961 14.7219 28.6963 13.8643C28.6963 13.0064 27.9992 12.3096 27.1416 12.3096Z" fill="white"/>
</svg>
