<svg width="139" height="38" viewBox="0 0 139 38" fill="none" xmlns="http://www.w3.org/2000/svg">
<g clip-path="url(#clip0_4110_687)">
<path d="M42.6264 19.7171L45.7051 5.0265H52.8888C60.0972 5.0265 58.2549 15.773 51.1207 15.773H47.6834L46.8674 19.7171H42.6141H42.6264ZM54.7064 19.7171L63.3614 5.0265H67.862L70.372 19.7171H65.9456L65.4263 16.5842H60.9998L59.1452 19.7171H54.7187H54.7064ZM62.1868 13.5138H65.4386L64.7215 9.19527L62.1868 13.5138ZM72.0536 19.7171L75.1323 5.0265H82.6993C88.7454 5.0265 87.8799 12.5403 83.1938 14.5872C83.5524 14.9117 83.6513 15.411 83.7626 15.8603L84.6405 19.7171H80.214L79.398 16.1848C79.262 15.5982 78.9529 15.436 78.3841 15.436H77.1848L76.3069 19.7295H72.0536V19.7171ZM77.8895 12.1409H80.1275C82.6003 12.1409 83.7008 8.3091 81.0795 8.3091H78.7056L77.8895 12.1409ZM85.6049 19.7171L94.2599 5.0265H98.7606L101.271 19.7171H96.8441L96.3248 16.5842H91.8983L90.0437 19.7171H85.6172H85.6049ZM93.0853 13.5138H96.3371L95.6077 9.19527L93.073 13.5138H93.0853ZM109.839 19.0306L110.581 15.4984C111.854 16.1599 116.961 17.6202 117.455 15.4984C117.975 13.414 111.199 14.4749 111.607 9.7819C111.941 5.91267 115.366 4.80183 118.704 4.80183C120.052 4.80183 121.808 5.01401 123.094 5.46334L122.352 9.02053C121.165 8.49632 116.479 7.38547 116.046 9.20775C115.663 10.356 120.003 10.8179 121.202 12.1783C122.104 13.2018 122.055 14.2752 121.808 15.5108C121.053 19.2053 117.814 19.9792 114.562 19.9667C112.806 19.9667 111.001 19.6671 109.851 19.0556L109.839 19.0306ZM129.696 19.9417C124.639 19.9417 122.883 17.1334 123.86 12.4155C124.973 7.2357 127.569 4.78935 132.899 4.78935C138.228 4.78935 139.687 7.64758 138.734 12.4155C137.659 17.5328 134.914 19.9417 129.696 19.9417ZM130.463 16.2972C132.96 16.2972 133.925 14.6746 134.395 12.4155C134.84 10.2562 134.951 8.44639 132.132 8.44639C129.56 8.44639 128.707 10.1189 128.2 12.4155C127.755 14.5623 127.582 16.2972 130.463 16.2972ZM102.952 19.7171L106.031 5.0265H110.284L107.205 19.7171H102.952ZM111.088 1.11983H110.556C109.208 1.11983 106.773 1.79382 106.303 3.67851H110.556L111.088 1.11983ZM18.281 0.533203C28.3827 0.533203 36.5679 8.79587 36.5679 18.9931C36.5679 19.2303 36.5679 19.4799 36.5555 19.7171H22.5962C22.2994 19.7171 22.0274 19.4799 22.0274 19.1804L21.9038 14.6996C21.9038 14.425 22.0769 14.2003 22.3242 14.1129L26.5651 12.6152C27.1339 12.4155 27.1215 11.6416 26.5651 11.4419L22.1634 9.81934C21.9161 9.71949 21.7554 9.50731 21.743 9.23272L21.607 4.5522C21.5947 3.9531 20.8652 3.71595 20.4942 4.19024L17.6133 7.90969C17.4526 8.12187 17.1929 8.20924 16.9333 8.13436L12.4698 6.81133C11.901 6.63659 11.4435 7.26066 11.7897 7.75991L14.3862 11.6167C14.5346 11.8413 14.5346 12.1159 14.3862 12.3406L11.7897 16.2722C11.4559 16.7715 11.901 17.3955 12.4698 17.2208L16.7849 15.9727C17.0446 15.8978 17.3166 15.9727 17.465 16.1973L19.4062 19.1055C19.5916 19.3925 19.4185 19.7046 19.1589 19.7046H0.00650497C0.00650497 19.4674 -0.00585938 19.2178 -0.00585938 18.9807C-0.00585938 8.79587 8.17934 0.533203 18.281 0.533203ZM48.3882 12.4779H50.5767C53.2474 12.4779 54.1129 8.29661 51.5658 8.29661H49.2661L48.3882 12.4779Z" fill="white"/>
<path fill-rule="evenodd" clip-rule="evenodd" d="M32.042 31.1871H8.80942C6.4602 31.1871 3.65349 30.4881 2.42942 28.2539H28.6295C32.042 28.2539 32.3017 30.7003 32.042 31.1871ZM35.3433 25.6329H5.3474C3.76477 25.6329 0.896239 24.8465 0.339844 22.6248H31.6958C35.3186 22.6248 35.4422 25.2334 35.3433 25.6329ZM87.83 27.3927H93.5052L93.6659 26.6438C93.8267 25.895 93.7649 25.3208 93.4681 24.8965C93.1714 24.4721 92.5161 24.2724 91.4898 24.2724C90.3399 24.2724 89.4992 24.522 88.9675 25.0213C88.4358 25.5205 88.0525 26.3193 87.83 27.3927ZM76.6402 33.4337L78.9029 22.6124H81.1656L81.0543 23.873C81.6231 23.536 82.2907 23.2364 83.0573 22.9618C83.8239 22.6872 84.5658 22.5 85.2829 22.3877L84.8996 24.2849C84.4669 24.3598 83.9847 24.4721 83.4654 24.6219C82.9461 24.7716 82.4391 24.9214 81.9569 25.0962C81.4747 25.2709 81.0667 25.4456 80.7328 25.6329L79.1007 33.4337H76.6402ZM68.9249 31.7986C69.9759 31.7986 70.829 31.4991 71.4596 30.9125C72.0902 30.3134 72.5476 29.3523 72.8444 28.0168C73.1164 26.7437 73.104 25.7951 72.8197 25.196C72.5353 24.5969 71.7934 24.2973 70.5817 24.2973C69.4689 24.2973 68.4674 24.6843 67.5772 25.4331L66.452 30.8376C66.724 31.1247 67.0579 31.3618 67.4535 31.5365C67.8492 31.7113 68.3438 31.7986 68.9372 31.7986H68.9249ZM62.6314 37.4652L65.6854 22.6248H67.8121L67.7255 23.6982C68.2943 23.2614 68.8878 22.9244 69.506 22.7122C70.1242 22.5 70.829 22.3877 71.6079 22.3877C72.5724 22.3877 73.3761 22.5874 74.0314 22.9868C74.6743 23.3862 75.1194 23.9978 75.3667 24.8216C75.614 25.6453 75.5893 26.7187 75.3173 28.0293C74.9092 29.9764 74.2045 31.3992 73.1906 32.3104C72.1767 33.2215 70.829 33.6709 69.1474 33.6709C67.8492 33.6709 66.8106 33.3713 66.0316 32.7597L65.0919 37.4652H62.6314ZM50.6133 33.4337L55.8558 27.9294L53.0243 22.6124H55.6703L57.5497 26.2195L60.9128 22.6124H63.5588L58.5388 27.9294L61.4568 33.4337H58.7861L56.8202 29.6643L53.2716 33.4337H50.6009H50.6133ZM42.9845 27.3927H48.6597L48.8205 26.6438C48.9812 25.895 48.9194 25.3208 48.6226 24.8965C48.3259 24.4721 47.6706 24.2724 46.6443 24.2724C45.4944 24.2724 44.6537 24.522 44.122 25.0213C43.5903 25.5205 43.207 26.3193 42.9845 27.3927ZM45.173 33.6709C43.9984 33.6709 43.0092 33.4711 42.2179 33.0593C41.4266 32.6474 40.8702 32.0233 40.5611 31.1871C40.2396 30.3508 40.2272 29.2899 40.4992 28.0168C40.8578 26.2819 41.5502 24.9089 42.5641 23.9104C43.578 22.9119 45.0493 22.4002 46.9658 22.4002C48.0415 22.4002 48.8823 22.5999 49.5252 23.0118C50.1558 23.4236 50.5886 23.9728 50.8235 24.6718C51.0584 25.3707 51.0831 26.1446 50.8977 26.9933L50.4896 29.0028H42.6506C42.5394 30.0513 42.7372 30.7752 43.2441 31.1746C43.7387 31.574 44.6908 31.7737 46.0879 31.7737C46.632 31.7737 47.2007 31.7238 47.7819 31.6114C48.3753 31.4991 48.8946 31.3743 49.3645 31.1995L48.9812 33.0218C48.4495 33.234 47.8684 33.3963 47.2131 33.4961C46.5701 33.6084 45.8901 33.6584 45.173 33.6584V33.6709ZM111.013 33.6709C110.271 33.6709 109.579 33.6209 108.936 33.5086C108.293 33.3963 107.761 33.2714 107.353 33.1217L107.811 31.0248C108.281 31.2245 108.812 31.3743 109.406 31.4866C109.999 31.5989 110.58 31.6489 111.137 31.6489C112.101 31.6489 113.61 31.7238 113.894 30.5255C113.968 30.201 113.919 29.9514 113.733 29.7767C113.226 29.2649 111.842 28.9654 111.149 28.7282C110.556 28.516 110.061 28.2789 109.641 28.0293C109.22 27.7796 108.936 27.4551 108.775 27.0557C108.614 26.6563 108.59 26.1446 108.713 25.508C108.924 24.522 109.418 23.7482 110.209 23.2115C110.988 22.6748 112.212 22.4002 113.845 22.4002C114.463 22.4002 115.044 22.4501 115.576 22.5375C116.107 22.6248 116.565 22.7372 116.948 22.8745L116.515 24.9464C116.144 24.7841 115.699 24.6468 115.205 24.5595C114.71 24.4721 114.24 24.4222 113.807 24.4222C112.942 24.4222 111.298 24.3597 111.063 25.4456C110.976 25.87 111.1 26.3068 111.471 26.4816C111.842 26.6563 112.633 26.906 113.498 27.2055C114.277 27.4676 114.896 27.7422 115.328 28.0293C115.761 28.3163 116.045 28.6658 116.181 29.0652C116.317 29.4646 116.342 29.864 116.206 30.5006C115.984 31.5615 115.464 32.3603 114.661 32.8845C113.857 33.4087 112.645 33.6709 111.038 33.6709H111.013ZM100.553 33.6709C99.811 33.6709 99.1186 33.6209 98.4757 33.5086C97.8327 33.3963 97.3011 33.2714 96.893 33.1217L97.3505 31.0248C97.8204 31.2245 98.352 31.3743 98.9455 31.4866C99.539 31.5989 100.12 31.6489 100.677 31.6489C101.641 31.6489 103.149 31.7238 103.434 30.5255C103.508 30.201 103.459 29.9514 103.273 29.7767C102.766 29.2649 101.381 28.9654 100.689 28.7282C100.095 28.516 99.6008 28.2789 99.1804 28.0293C98.7601 27.7796 98.4757 27.4551 98.3149 27.0557C98.1542 26.6563 98.1295 26.1446 98.2531 25.508C98.4633 24.522 98.9579 23.7482 99.7492 23.2115C100.528 22.6748 101.74 22.4002 103.384 22.4002C104.003 22.4002 104.584 22.4501 105.115 22.5375C105.647 22.6248 106.104 22.7372 106.488 22.8745L106.055 24.9464C105.684 24.7841 105.239 24.6468 104.744 24.5595C104.25 24.4721 103.78 24.4222 103.347 24.4222C102.482 24.4222 100.837 24.3597 100.602 25.4456C100.516 25.87 100.639 26.3068 101.01 26.4816C101.381 26.6563 102.173 26.906 103.038 27.2055C103.817 27.4676 104.435 27.7422 104.868 28.0293C105.301 28.3163 105.585 28.6658 105.721 29.0652C105.857 29.4646 105.882 29.864 105.746 30.5006C105.523 31.5615 105.004 32.3603 104.2 32.8845C103.397 33.4087 102.185 33.6709 100.578 33.6709H100.553ZM90.0185 33.6709C88.8438 33.6709 87.8547 33.4711 87.0634 33.0593C86.2721 32.6474 85.7157 32.0233 85.4066 31.1871C85.0851 30.3508 85.0727 29.2899 85.3447 28.0168C85.7033 26.2819 86.3957 24.9089 87.4096 23.9104C88.4235 22.9119 89.8948 22.4002 91.8113 22.4002C92.887 22.4002 93.7278 22.5999 94.3707 23.0118C95.0013 23.4236 95.434 23.9728 95.669 24.6718C95.9039 25.3707 95.9286 26.1446 95.7432 26.9933L95.3351 29.0028H87.4961C87.3848 30.0513 87.5827 30.7752 88.0896 31.1746C88.5842 31.574 89.5363 31.7737 90.9334 31.7737C91.4775 31.7737 92.0462 31.7238 92.6273 31.6114C93.2208 31.4991 93.7401 31.3743 94.21 31.1995L93.8267 33.0218C93.295 33.234 92.7139 33.3963 92.0586 33.4961C91.4156 33.6084 90.7356 33.6584 90.0185 33.6584V33.6709ZM25.8846 35.7552C23.5601 36.8411 20.9636 37.4527 18.2187 37.4527C14.1755 37.4527 10.4539 36.1297 7.43698 33.883H26.6388C27.5414 33.883 28.0113 34.7567 25.8846 35.7552Z" fill="white"/>
</g>
<defs>
<clipPath id="clip0_4110_687">
<rect width="139" height="36.9326" fill="white" transform="translate(0 0.533203)"/>
</clipPath>
</defs>
</svg>
