<svg width="348" height="93" viewBox="0 0 348 93" fill="none" xmlns="http://www.w3.org/2000/svg">
<path d="M106.954 47.8158L114.639 11.1995H132.571C150.565 11.1995 145.966 37.9851 128.158 37.9851H119.578L117.541 47.8158H106.923H106.954ZM137.108 47.8158L158.713 11.1995H169.948L176.213 47.8158H165.164L163.867 40.0073H152.818L148.189 47.8158H137.139H137.108ZM155.781 32.3542H163.898L162.108 21.5902L155.781 32.3542ZM180.41 47.8158L188.096 11.1995H206.984C222.077 11.1995 219.916 29.9277 208.219 35.0297C209.114 35.8386 209.361 37.0829 209.639 38.2029L211.83 47.8158H200.781L198.744 39.0118C198.404 37.5496 197.633 37.1452 196.213 37.1452H193.219L191.028 47.847H180.41V47.8158ZM194.978 28.9322H200.565C206.737 28.9322 209.484 19.3814 202.941 19.3814H197.015L194.978 28.9322ZM214.237 47.8158L235.842 11.1995H247.077L253.342 47.8158H242.293L240.997 40.0073H229.947L225.318 47.8158H214.268H214.237ZM232.91 32.3542H241.027L239.206 21.5902L232.879 32.3542H232.91ZM274.731 46.1048L276.583 37.3007C279.762 38.9495 292.509 42.5894 293.743 37.3007C295.039 32.1054 278.126 34.7497 279.144 23.0524C279.978 13.4083 288.527 10.6396 296.86 10.6396C300.225 10.6396 304.607 11.1684 307.817 12.2884L305.965 21.1547C303.002 19.8481 291.305 17.0793 290.225 21.6213C289.268 24.4835 300.101 25.6345 303.095 29.0255C305.348 31.5765 305.224 34.2519 304.607 37.3318C302.725 46.5403 294.638 48.4692 286.521 48.438C282.138 48.438 277.632 47.6914 274.762 46.167L274.731 46.1048ZM324.298 48.3758C311.675 48.3758 307.292 41.3761 309.731 29.6166C312.508 16.706 318.99 10.6085 332.292 10.6085C345.595 10.6085 349.237 17.7326 346.86 29.6166C344.175 42.3716 337.323 48.3758 324.298 48.3758ZM326.212 39.2917C332.447 39.2917 334.854 35.2475 336.027 29.6166C337.138 24.2346 337.416 19.7236 330.379 19.7236C323.959 19.7236 321.829 23.8924 320.564 29.6166C319.453 34.9675 319.021 39.2917 326.212 39.2917ZM257.54 47.8158L265.225 11.1995H275.842L268.157 47.8158H257.54ZM277.848 1.46216H276.521C273.157 1.46216 267.077 3.1421 265.904 7.83968H276.521L277.848 1.46216ZM46.183 0C71.3989 0 91.8308 20.5947 91.8308 46.0115C91.8308 46.6026 91.8308 47.2248 91.8 47.8158H56.9545C56.2138 47.8158 55.5348 47.2248 55.5348 46.4781L55.2262 35.3097C55.2262 34.6253 55.6582 34.0653 56.2755 33.8475L66.8619 30.1143C68.2816 29.6166 68.2508 27.6878 66.8619 27.19L55.8743 23.1457C55.257 22.8969 54.8558 22.368 54.8249 21.6836L54.4854 10.0174C54.4545 8.5241 52.6336 7.93301 51.7077 9.11519L44.5163 18.3859C44.1151 18.9148 43.467 19.1326 42.8188 18.9459L31.6769 15.6483C30.2572 15.2127 29.1152 16.7682 29.9794 18.0126L36.4608 27.6256C36.8312 28.1855 36.8312 28.8699 36.4608 29.4299L29.9794 39.2295C29.1461 40.4739 30.2572 42.0294 31.6769 41.5939L42.4485 38.4829C43.0966 38.2962 43.7756 38.4829 44.146 39.0429L48.9916 46.2915C49.4546 47.007 49.0225 47.7847 48.3743 47.7847H0.56602C0.56602 47.1936 0.535156 46.5714 0.535156 45.9804C0.535156 20.5947 20.9671 0 46.183 0ZM121.337 29.7721H126.8C133.466 29.7721 135.627 19.3503 129.269 19.3503H123.528L121.337 29.7721Z" fill="white"/>
<path fill-rule="evenodd" clip-rule="evenodd" d="M80.5337 76.4061H22.5403C16.6761 76.4061 9.66999 74.6639 6.61445 69.0953H72.0152C80.5337 69.0953 81.1818 75.1928 80.5337 76.4061ZM88.7744 62.5622H13.8984C9.94776 62.5622 2.78732 60.6023 1.39844 55.0647H79.6695C88.7127 55.0647 89.0213 61.5667 88.7744 62.5622ZM219.792 66.9487H233.959L234.36 65.0821C234.761 63.2155 234.607 61.7844 233.866 60.7267C233.125 59.669 231.489 59.1712 228.928 59.1712C226.057 59.1712 223.959 59.7934 222.632 61.0378C221.304 62.2822 220.348 64.2732 219.792 66.9487ZM191.86 82.0059L197.508 55.0336H203.156L202.879 58.1757C204.298 57.3357 205.965 56.5891 207.879 55.9047C209.792 55.2203 211.644 54.7536 213.434 54.4736L212.477 59.2023C211.397 59.389 210.193 59.669 208.897 60.0423C207.601 60.4156 206.335 60.7889 205.132 61.2245C203.928 61.66 202.909 62.0955 202.076 62.5622L198.002 82.0059H191.86ZM172.601 77.9305C175.224 77.9305 177.354 77.1838 178.928 75.7217C180.502 74.2284 181.644 71.8329 182.385 68.5042C183.064 65.331 183.033 62.9666 182.323 61.4734C181.613 59.9801 179.761 59.2334 176.737 59.2334C173.959 59.2334 171.459 60.1978 169.237 62.0644L166.428 75.535C167.107 76.2505 167.941 76.8416 168.928 77.2772C169.916 77.7127 171.15 77.9305 172.632 77.9305H172.601ZM156.891 92.0543L164.515 55.0647H169.823L169.607 57.7402C171.027 56.6513 172.508 55.8114 174.052 55.2825C175.595 54.7536 177.354 54.4736 179.298 54.4736C181.706 54.4736 183.712 54.9714 185.348 55.9669C186.953 56.9624 188.064 58.4868 188.681 60.5401C189.298 62.5933 189.237 65.2688 188.558 68.5353C187.539 73.3884 185.78 76.9349 183.249 79.206C180.718 81.477 177.354 82.5969 173.157 82.5969C169.916 82.5969 167.323 81.8503 165.379 80.3259L163.033 92.0543H156.891ZM126.891 82.0059L139.978 68.2864L132.91 55.0336H139.515L144.206 64.0244L152.601 55.0336H159.206L146.675 68.2864L153.959 82.0059H147.293L142.385 72.6107L133.527 82.0059H126.861H126.891ZM107.848 66.9487H122.015L122.416 65.0821C122.817 63.2155 122.663 61.7844 121.922 60.7267C121.182 59.669 119.546 59.1712 116.984 59.1712C114.114 59.1712 112.015 59.7934 110.688 61.0378C109.361 62.2822 108.404 64.2732 107.848 66.9487ZM113.311 82.5969C110.379 82.5969 107.91 82.0992 105.935 81.0726C103.959 80.0459 102.571 78.4904 101.799 76.4061C100.997 74.3217 100.966 71.6774 101.645 68.5042C102.54 64.1799 104.268 60.7578 106.799 58.269C109.33 55.7802 113.003 54.5047 117.787 54.5047C120.472 54.5047 122.57 55.0025 124.175 56.0291C125.749 57.0558 126.83 58.4246 127.416 60.1667C128.003 61.9089 128.064 63.8377 127.601 65.9532L126.583 70.9619H107.015C106.737 73.5751 107.231 75.3795 108.496 76.375C109.731 77.3705 112.108 77.8682 115.595 77.8682C116.953 77.8682 118.373 77.7438 119.824 77.4638C121.305 77.1838 122.601 76.8727 123.774 76.4372L122.817 80.9792C121.49 81.5081 120.04 81.9125 118.404 82.1614C116.799 82.4414 115.101 82.5658 113.311 82.5658V82.5969ZM277.662 82.5969C275.81 82.5969 274.082 82.4725 272.477 82.1925C270.872 81.9125 269.545 81.6014 268.526 81.2281L269.668 76.0017C270.841 76.4994 272.168 76.8727 273.65 77.1527C275.131 77.4327 276.582 77.5571 277.971 77.5571C280.378 77.5571 284.143 77.7438 284.853 74.7573C285.039 73.9484 284.915 73.3262 284.452 72.8907C283.187 71.6152 279.73 70.8685 278.001 70.2774C276.52 69.7486 275.285 69.1575 274.236 68.5353C273.187 67.9131 272.477 67.1042 272.076 66.1087C271.674 65.1132 271.613 63.8377 271.921 62.2511C272.446 59.7934 273.681 57.8646 275.656 56.5269C277.6 55.1892 280.656 54.5047 284.73 54.5047C286.273 54.5047 287.724 54.6292 289.051 54.8469C290.378 55.0647 291.52 55.3447 292.477 55.6869L291.396 60.8512C290.471 60.4467 289.359 60.1045 288.125 59.8867C286.89 59.669 285.717 59.5445 284.637 59.5445C282.477 59.5445 278.372 59.389 277.785 62.0955C277.569 63.1533 277.878 64.2421 278.804 64.6777C279.73 65.1132 281.705 65.7354 283.866 66.482C285.81 67.1353 287.353 67.8198 288.434 68.5353C289.514 69.2508 290.224 70.1219 290.563 71.1174C290.903 72.1129 290.964 73.1084 290.625 74.695C290.069 77.3394 288.773 79.3304 286.767 80.637C284.761 81.9436 281.736 82.5969 277.724 82.5969H277.662ZM251.551 82.5969C249.699 82.5969 247.971 82.4725 246.366 82.1925C244.761 81.9125 243.434 81.6014 242.415 81.2281L243.557 76.0017C244.73 76.4994 246.057 76.8727 247.539 77.1527C249.02 77.4327 250.471 77.5571 251.86 77.5571C254.267 77.5571 258.033 77.7438 258.742 74.7573C258.928 73.9484 258.804 73.3262 258.341 72.8907C257.076 71.6152 253.619 70.8685 251.891 70.2774C250.409 69.7486 249.175 69.1575 248.125 68.5353C247.076 67.9131 246.366 67.1042 245.965 66.1087C245.563 65.1132 245.502 63.8377 245.81 62.2511C246.335 59.7934 247.57 57.8646 249.545 56.5269C251.489 55.1892 254.514 54.5047 258.619 54.5047C260.162 54.5047 261.613 54.6292 262.94 54.8469C264.267 55.0647 265.409 55.3447 266.366 55.6869L265.286 60.8512C264.36 60.4467 263.249 60.1045 262.014 59.8867C260.779 59.669 259.607 59.5445 258.526 59.5445C256.366 59.5445 252.261 59.389 251.675 62.0955C251.458 63.1533 251.767 64.2421 252.693 64.6777C253.619 65.1132 255.594 65.7354 257.755 66.482C259.699 67.1353 261.242 67.8198 262.323 68.5353C263.403 69.2508 264.113 70.1219 264.452 71.1174C264.792 72.1129 264.853 73.1084 264.514 74.695C263.958 77.3394 262.662 79.3304 260.656 80.637C258.65 81.9436 255.625 82.5969 251.613 82.5969H251.551ZM225.255 82.5969C222.323 82.5969 219.854 82.0992 217.878 81.0726C215.903 80.0459 214.514 78.4904 213.743 76.4061C212.94 74.3217 212.909 71.6774 213.588 68.5042C214.483 64.1799 216.212 60.7578 218.743 58.269C221.273 55.7802 224.946 54.5047 229.73 54.5047C232.415 54.5047 234.514 55.0025 236.119 56.0291C237.693 57.0558 238.773 58.4246 239.36 60.1667C239.946 61.9089 240.008 63.8377 239.545 65.9532L238.526 70.9619H218.959C218.681 73.5751 219.175 75.3795 220.44 76.375C221.675 77.3705 224.051 77.8682 227.539 77.8682C228.897 77.8682 230.317 77.7438 231.767 77.4638C233.249 77.1838 234.545 76.8727 235.718 76.4372L234.761 80.9792C233.434 81.5081 231.983 81.9125 230.348 82.1614C228.743 82.4414 227.045 82.5658 225.255 82.5658V82.5969ZM65.1634 87.7923C59.361 90.4988 52.8796 92.0232 46.0278 92.0232C35.9352 92.0232 26.6452 88.7256 19.1144 83.1258H67.0461C69.2992 83.1258 70.472 85.3035 65.1634 87.7923Z" fill="white"/>
</svg>
