<svg width="48" height="49" viewBox="0 0 48 49" fill="none" xmlns="http://www.w3.org/2000/svg">
<mask id="mask0_4562_1552" style="mask-type:alpha" maskUnits="userSpaceOnUse" x="0" y="0" width="48" height="49">
<rect y="0.592773" width="48" height="48" fill="#D9D9D9"/>
</mask>
<g mask="url(#mask0_4562_1552)">
<path d="M15.2083 11.7949L9.82578 6.44088L12.7433 3.49487L18.1258 8.87737L15.2083 11.7949ZM32.8193 11.7949L29.9018 8.87737L35.2563 3.49487L38.1738 6.44088L32.8193 11.7949ZM21.9453 8.45137V-0.265625H26.1043V8.45137H21.9453ZM7.40878 49.3384C6.78778 49.3384 6.26045 49.1272 5.82678 48.7049C5.39278 48.2829 5.17578 47.7535 5.17578 47.1169V30.6669L9.46928 17.7299C9.64295 17.1755 9.99712 16.7044 10.5318 16.3164C11.0668 15.9284 11.6771 15.7344 12.3628 15.7344H35.6368C36.3224 15.7344 36.9328 15.9284 37.4678 16.3164C38.0024 16.7044 38.3566 17.1755 38.5303 17.7299L42.8518 30.6669V47.1169C42.8518 47.7535 42.6255 48.2829 42.1728 48.7049C41.7201 49.1272 41.1871 49.3384 40.5738 49.3384H40.1468C39.4978 49.3384 38.9563 49.1337 38.5223 48.7244C38.0883 48.3147 37.8713 47.807 37.8713 47.2014V45.1384H10.0783V47.2014C10.0783 47.807 9.85845 48.3147 9.41878 48.7244C8.97912 49.1337 8.43478 49.3384 7.78578 49.3384H7.40878ZM10.4388 27.7344H37.5888L34.9453 19.7474H13.0543L10.4388 27.7344ZM14.3828 38.7669C15.1551 38.7669 15.8114 38.4949 16.3518 37.9509C16.8924 37.4069 17.1628 36.7655 17.1628 36.0269C17.1628 35.2322 16.8898 34.559 16.3438 34.0074C15.7974 33.4557 15.1606 33.1799 14.4333 33.1799C13.6129 33.1799 12.9363 33.4534 12.4033 34.0004C11.8706 34.5477 11.6043 35.2087 11.6043 35.9834C11.6043 36.7577 11.8706 37.4152 12.4033 37.9559C12.9363 38.4965 13.5961 38.7669 14.3828 38.7669ZM33.6443 38.7669C34.4459 38.7669 35.1179 38.4949 35.6603 37.9509C36.2026 37.4069 36.4738 36.7655 36.4738 36.0269C36.4738 35.2322 36.2026 34.559 35.6603 34.0074C35.1179 33.4557 34.4629 33.1799 33.6953 33.1799C32.9039 33.1799 32.2428 33.4534 31.7118 34.0004C31.1804 34.5477 30.9148 35.2087 30.9148 35.9834C30.9148 36.7577 31.1833 37.4152 31.7203 37.9559C32.2569 38.4965 32.8983 38.7669 33.6443 38.7669Z" fill="#003B5C"/>
</g>
</svg>
