<svg width="48" height="49" viewBox="0 0 48 49" fill="none" xmlns="http://www.w3.org/2000/svg">
<mask id="mask0_4562_1547" style="mask-type:alpha" maskUnits="userSpaceOnUse" x="0" y="0" width="48" height="49">
<rect y="0.592773" width="48" height="48" fill="#D9D9D9"/>
</mask>
<g mask="url(#mask0_4562_1547)">
<path d="M23.9998 12.3753L17.9108 6.33625L20.8283 3.34075L23.9998 6.54075L30.8498 -0.28125L33.7953 2.63625L23.9998 12.3753ZM7.40878 49.3382C6.78778 49.3382 6.26045 49.1271 5.82678 48.7048C5.39278 48.2827 5.17578 47.7534 5.17578 47.1167V30.6667L9.46928 17.7297C9.64295 17.1754 9.99712 16.7042 10.5318 16.3162C11.0668 15.9282 11.6771 15.7343 12.3628 15.7343H35.6368C36.3224 15.7343 36.9328 15.9282 37.4678 16.3162C38.0024 16.7042 38.3566 17.1754 38.5303 17.7297L42.8518 30.6667V47.1167C42.8518 47.7534 42.6255 48.2827 42.1728 48.7048C41.7201 49.1271 41.1871 49.3382 40.5738 49.3382H40.1468C39.4978 49.3382 38.9563 49.1336 38.5223 48.7243C38.0883 48.3146 37.8713 47.8069 37.8713 47.2012V45.1383H10.0783V47.2012C10.0783 47.8069 9.85845 48.3146 9.41878 48.7243C8.97912 49.1336 8.43478 49.3382 7.78578 49.3382H7.40878ZM10.4388 27.7342H37.5888L34.9453 19.7473H13.0543L10.4388 27.7342ZM14.3828 38.7668C15.1551 38.7668 15.8114 38.4948 16.3518 37.9508C16.8924 37.4068 17.1628 36.7654 17.1628 36.0267C17.1628 35.2321 16.8898 34.5589 16.3438 34.0073C15.7974 33.4556 15.1606 33.1797 14.4333 33.1797C13.6129 33.1797 12.9363 33.4533 12.4033 34.0003C11.8706 34.5476 11.6043 35.2086 11.6043 35.9832C11.6043 36.7576 11.8706 37.4151 12.4033 37.9557C12.9363 38.4964 13.5961 38.7668 14.3828 38.7668ZM33.6443 38.7668C34.4459 38.7668 35.1179 38.4948 35.6603 37.9508C36.2026 37.4068 36.4738 36.7654 36.4738 36.0267C36.4738 35.2321 36.2026 34.5589 35.6603 34.0073C35.1179 33.4556 34.4629 33.1797 33.6953 33.1797C32.9039 33.1797 32.2428 33.4533 31.7118 34.0003C31.1804 34.5476 30.9148 35.2086 30.9148 35.9832C30.9148 36.7576 31.1833 37.4151 31.7203 37.9557C32.2569 38.4964 32.8983 38.7668 33.6443 38.7668Z" fill="#003B5C"/>
</g>
</svg>
