<svg width="13" height="14" viewBox="0 0 13 14" fill="none" xmlns="http://www.w3.org/2000/svg">
<mask id="mask0_4565_2784" style="mask-type:alpha" maskUnits="userSpaceOnUse" x="0" y="0" width="13" height="14">
<rect y="0.5" width="13" height="13" fill="#D9D9D9"/>
</mask>
<g mask="url(#mask0_4565_2784)">
<path d="M1.30005 11.5502V10.5752C1.62505 10.5752 1.8688 10.4894 2.0313 10.3179C2.1938 10.1464 2.53234 10.0606 3.04692 10.0606C3.56151 10.0606 3.89553 10.1464 4.04901 10.3179C4.20248 10.4894 4.44172 10.5752 4.76672 10.5752C5.09172 10.5752 5.33321 10.4894 5.49119 10.3179C5.64918 10.1464 5.98547 10.0606 6.50005 10.0606C6.99658 10.0606 7.3306 10.1464 7.50213 10.3179C7.67366 10.4894 7.91967 10.5752 8.24015 10.5752C8.56064 10.5752 8.79987 10.4894 8.95786 10.3179C9.11585 10.1464 9.45213 10.0606 9.96672 10.0606C10.4813 10.0606 10.8187 10.1464 10.979 10.3179C11.1392 10.4894 11.3796 10.5752 11.7 10.5752V11.5502C11.2035 11.5502 10.8695 11.4644 10.698 11.2929C10.5264 11.1214 10.2827 11.0356 9.96672 11.0356C9.65074 11.0356 9.40925 11.1214 9.24224 11.2929C9.07522 11.4644 8.74119 11.5502 8.24015 11.5502C7.73911 11.5502 7.40283 11.4644 7.2313 11.2929C7.05977 11.1214 6.81376 11.0356 6.49328 11.0356C6.17279 11.0356 5.93356 11.1214 5.77557 11.2929C5.61758 11.4644 5.2813 11.5502 4.76672 11.5502C4.25213 11.5502 3.9181 11.4644 3.76463 11.2929C3.61116 11.1214 3.37192 11.0356 3.04692 11.0356C2.72192 11.0356 2.47853 11.1214 2.31676 11.2929C2.15498 11.4644 1.81608 11.5502 1.30005 11.5502ZM1.31359 9.6002V8.6252C1.63859 8.6252 1.88008 8.53943 2.03807 8.3679C2.19606 8.19638 2.53234 8.11061 3.04692 8.11061C3.56151 8.11061 3.89779 8.19638 4.05578 8.3679C4.21376 8.53943 4.45526 8.6252 4.78026 8.6252C5.10526 8.6252 5.34675 8.53943 5.50474 8.3679C5.66272 8.19638 5.99901 8.11061 6.51359 8.11061C7.01012 8.11061 7.34415 8.19638 7.51567 8.3679C7.6872 8.53943 7.93321 8.6252 8.25369 8.6252C8.57418 8.6252 8.81116 8.53943 8.96463 8.3679C9.1181 8.19638 9.45213 8.11061 9.96672 8.11061C10.4813 8.11061 10.8187 8.19638 10.979 8.3679C11.1392 8.53943 11.3796 8.6252 11.7 8.6252V9.6002C11.2035 9.6002 10.8695 9.51443 10.698 9.3429C10.5264 9.17138 10.2827 9.08561 9.96672 9.08561C9.65074 9.08561 9.41151 9.17138 9.24901 9.3429C9.08651 9.51443 8.7504 9.6002 8.24069 9.6002C7.74832 9.6002 7.41637 9.51443 7.24484 9.3429C7.07331 9.17138 6.83173 9.08561 6.52009 9.08561C6.19121 9.08561 5.94669 9.17138 5.78654 9.3429C5.62639 9.51443 5.29096 9.6002 4.78026 9.6002C4.26567 9.6002 3.92939 9.51443 3.7714 9.3429C3.61342 9.17138 3.37192 9.08561 3.04692 9.08561C2.72192 9.08561 2.47939 9.17138 2.31933 9.3429C2.15927 9.51443 1.82402 9.6002 1.31359 9.6002ZM3.6563 6.87832L5.47088 5.06374L4.94411 4.53697C4.65432 4.24717 4.35369 4.0436 4.04224 3.92624C3.73078 3.80888 3.33581 3.7502 2.85734 3.7502V2.4502C3.50364 2.4502 4.0379 2.52188 4.46013 2.66524C4.88245 2.8086 5.2961 3.08449 5.70109 3.4929L9.16776 6.94603C8.99623 7.02728 8.84953 7.10853 8.72765 7.18978C8.60578 7.27103 8.44102 7.31165 8.23338 7.31165C7.91741 7.31165 7.67366 7.22589 7.50213 7.05436C7.3306 6.88283 6.99658 6.79707 6.50005 6.79707C5.98547 6.79707 5.64918 6.88283 5.49119 7.05436C5.33321 7.22589 5.09172 7.31165 4.76672 7.31165C4.52297 7.31165 4.33564 7.25749 4.20474 7.14915C4.07383 7.04082 3.89102 6.95054 3.6563 6.87832ZM8.77193 2.4502C9.13512 2.4502 9.4431 2.57658 9.69588 2.82936C9.94866 3.08214 10.075 3.38705 10.075 3.7441C10.075 4.10982 9.9497 4.41893 9.699 4.67144C9.4482 4.92394 9.14126 5.0502 8.77816 5.0502C8.41498 5.0502 8.10699 4.92394 7.85422 4.67144C7.60144 4.41893 7.47505 4.10982 7.47505 3.7441C7.47505 3.38705 7.6004 3.08214 7.8511 2.82936C8.10189 2.57658 8.40884 2.4502 8.77193 2.4502Z" fill="#1C1B1F"/>
</g>
</svg>
