<svg width="36" height="36" viewBox="0 0 36 36" fill="none" xmlns="http://www.w3.org/2000/svg">
<mask id="mask0_4557_2079" style="mask-type:alpha" maskUnits="userSpaceOnUse" x="0" y="0" width="36" height="36">
<rect width="36" height="36" fill="#D9D9D9"/>
</mask>
<g mask="url(#mask0_4557_2079)">
<path d="M-0.0390625 31.65V27.675H8.21094V25.05H1.53594V21.075H8.21094V18.45H3.11094V14.475H8.21094V9.975L5.06094 3.225L8.58594 1.5L12.6359 9.9H30.1109L27.1109 3.375L30.6359 1.725L34.5359 9.9V31.65H-0.0390625ZM18.3359 20.475H24.4109C24.9847 20.475 25.4656 20.281 25.8536 19.893C26.2418 19.5047 26.4359 19.0238 26.4359 18.45C26.4359 17.8975 26.2359 17.4344 25.8359 17.0606C25.4359 16.6869 24.9609 16.5 24.4109 16.5H18.3359C17.7859 16.5 17.3109 16.6869 16.9109 17.0606C16.5109 17.4344 16.3109 17.8975 16.3109 18.45C16.3109 19.0238 16.5049 19.5047 16.8929 19.893C17.2812 20.281 17.7622 20.475 18.3359 20.475Z" fill="#EE2737"/>
</g>
</svg>
