<svg width="17" height="16" viewBox="0 0 17 16" fill="none" xmlns="http://www.w3.org/2000/svg">
<g clip-path="url(#clip0_4565_2750)">
<path d="M7.96392 1.28787C8.10056 0.959358 8.56594 0.959357 8.70258 1.28787L10.3555 5.26186C10.4131 5.40035 10.5433 5.49498 10.6928 5.50697L14.9831 5.85091C15.3377 5.87935 15.4815 6.32195 15.2113 6.55342L11.9426 9.35342C11.8287 9.451 11.7789 9.60411 11.8137 9.75001L12.8124 13.9366C12.8949 14.2827 12.5184 14.5562 12.2148 14.3707L8.54175 12.1273C8.41375 12.0491 8.25276 12.0491 8.12475 12.1273L4.4517 14.3707C4.14806 14.5562 3.77156 14.2827 3.85411 13.9366L4.85276 9.75001C4.88756 9.60411 4.83781 9.451 4.7239 9.35342L1.45518 6.55342C1.18497 6.32195 1.32878 5.87935 1.68344 5.85091L5.97369 5.50697C6.1232 5.49498 6.25345 5.40035 6.31105 5.26186L7.96392 1.28787Z" fill="#F2F4F7"/>
<g clip-path="url(#clip1_4565_2750)">
<path d="M7.96392 1.28787C8.10056 0.959358 8.56594 0.959357 8.70258 1.28787L10.3555 5.26186C10.4131 5.40035 10.5433 5.49498 10.6928 5.50697L14.9831 5.85091C15.3377 5.87935 15.4815 6.32195 15.2113 6.55342L11.9426 9.35342C11.8287 9.451 11.7789 9.60411 11.8137 9.75001L12.8124 13.9366C12.8949 14.2827 12.5184 14.5562 12.2148 14.3707L8.54175 12.1273C8.41375 12.0491 8.25276 12.0491 8.12475 12.1273L4.4517 14.3707C4.14806 14.5562 3.77156 14.2827 3.85411 13.9366L4.85276 9.75001C4.88756 9.60411 4.83781 9.451 4.7239 9.35342L1.45518 6.55342C1.18497 6.32195 1.32878 5.87935 1.68344 5.85091L5.97369 5.50697C6.1232 5.49498 6.25345 5.40035 6.31105 5.26186L7.96392 1.28787Z" fill="#FB8500"/>
</g>
</g>
<defs>
<clipPath id="clip0_4565_2750">
<rect width="16" height="16" fill="white" transform="translate(0.333252)"/>
</clipPath>
<clipPath id="clip1_4565_2750">
<rect width="16" height="16" fill="white" transform="translate(0.333252)"/>
</clipPath>
</defs>
</svg>
