<svg width="117" height="20" viewBox="0 0 117 20" fill="none" xmlns="http://www.w3.org/2000/svg">
<path d="M112.398 19.4306C112.157 19.4306 111.917 19.3575 111.711 19.2119L106.859 15.7731L102.006 19.2119C101.805 19.3548 101.564 19.4313 101.316 19.4305C101.069 19.4296 100.827 19.3515 100.627 19.2072C100.427 19.0637 100.278 18.8615 100.201 18.6293C100.124 18.3971 100.122 18.1468 100.197 17.9139L102.007 12.1421L97.1985 8.79346C96.9992 8.64812 96.8512 8.44453 96.7754 8.2115C96.6996 7.97847 96.6999 7.72779 96.7762 7.49492C96.8531 7.26261 97.0019 7.06006 97.2016 6.91589C97.4013 6.77173 97.6418 6.69323 97.8891 6.6915L103.845 6.68266L105.741 1.05406C105.819 0.822185 105.969 0.620517 106.17 0.477613C106.371 0.334709 106.612 0.257813 106.859 0.257812C107.106 0.257812 107.347 0.334709 107.548 0.477613C107.749 0.620517 107.899 0.822185 107.977 1.05406L109.841 6.68266L115.827 6.6915C116.074 6.69289 116.315 6.77134 116.515 6.91572C116.715 7.06011 116.864 7.26308 116.941 7.4958C117.017 7.72852 117.017 7.97916 116.942 8.21211C116.866 8.44506 116.718 8.64848 116.518 8.79346L111.71 12.1421L113.519 17.9139C113.594 18.1467 113.593 18.3971 113.516 18.6293C113.439 18.8615 113.29 19.0637 113.09 19.2072C112.889 19.3526 112.647 19.4309 112.398 19.4306Z" fill="#EE2737"/>
<path d="M88.1127 19.4306C87.8718 19.4306 87.632 19.3575 87.4256 19.2119L82.5735 15.7731L77.7213 19.2119C77.5203 19.3548 77.2787 19.4313 77.031 19.4305C76.7834 19.4296 76.5423 19.3515 76.3423 19.2072C76.1421 19.0637 75.9928 18.8615 75.9156 18.6293C75.8383 18.3971 75.8372 18.1468 75.9123 17.9139L77.7219 12.1421L72.9133 8.79346C72.714 8.64812 72.566 8.44453 72.4902 8.2115C72.4144 7.97847 72.4147 7.72779 72.491 7.49492C72.5679 7.26261 72.7167 7.06006 72.9164 6.91589C73.1162 6.77173 73.3567 6.69323 73.604 6.6915L79.5596 6.68266L81.4557 1.05406C81.534 0.822185 81.684 0.620517 81.8847 0.477613C82.0854 0.334709 82.3264 0.257813 82.5738 0.257812C82.8211 0.257812 83.0622 0.334709 83.2628 0.477613C83.4635 0.620517 83.6136 0.822185 83.6918 1.05406L85.5557 6.68266L91.5417 6.6915C91.7893 6.69289 92.0302 6.77134 92.2301 6.91572C92.4301 7.06011 92.5788 7.26308 92.6554 7.4958C92.7319 7.72852 92.7323 7.97916 92.6565 8.21211C92.5807 8.44506 92.4325 8.64848 92.233 8.79346L87.4244 12.1421L89.2341 17.9139C89.3093 18.1467 89.3083 18.3971 89.2312 18.6293C89.1541 18.8615 89.0048 19.0637 88.8046 19.2072C88.604 19.3526 88.3615 19.4309 88.1127 19.4306Z" fill="#EE2737"/>
<path d="M63.8276 19.4306C63.5866 19.4306 63.3468 19.3575 63.1404 19.2119L58.2883 15.7731L53.4362 19.2119C53.2351 19.3548 52.9935 19.4313 52.7459 19.4305C52.4982 19.4296 52.2572 19.3515 52.0572 19.2072C51.8569 19.0637 51.7076 18.8615 51.6304 18.6293C51.5532 18.3971 51.552 18.1468 51.6271 17.9139L53.4368 12.1421L48.6281 8.79346C48.4289 8.64812 48.2809 8.44453 48.2051 8.2115C48.1293 7.97847 48.1296 7.72779 48.2059 7.49492C48.2827 7.26261 48.4316 7.06006 48.6313 6.91589C48.831 6.77173 49.0715 6.69323 49.3188 6.6915L55.2744 6.68266L57.1705 1.05406C57.2488 0.822185 57.3989 0.620517 57.5995 0.477613C57.8002 0.334709 58.0413 0.257813 58.2886 0.257812C58.5359 0.257812 58.777 0.334709 58.9777 0.477613C59.1783 0.620517 59.3284 0.822185 59.4067 1.05406L61.2706 6.68266L67.2566 6.6915C67.5042 6.69289 67.7451 6.77134 67.945 6.91572C68.1449 7.06011 68.2937 7.26308 68.3702 7.4958C68.4468 7.72852 68.4472 7.97916 68.3713 8.21211C68.2955 8.44506 68.1473 8.64848 67.9479 8.79346L63.1393 12.1421L64.9489 17.9139C65.0241 18.1467 65.0231 18.3971 64.946 18.6293C64.8689 18.8615 64.7196 19.0637 64.5194 19.2072C64.3188 19.3526 64.0764 19.4309 63.8276 19.4306Z" fill="#EE2737"/>
<path d="M40.5541 19.4306C40.3132 19.4306 40.0734 19.3575 39.867 19.2119L35.0149 15.7731L30.1627 19.2119C29.9617 19.3548 29.7201 19.4313 29.4724 19.4305C29.2248 19.4296 28.9837 19.3515 28.7837 19.2072C28.5835 19.0637 28.4342 18.8615 28.357 18.6293C28.2798 18.3971 28.2786 18.1468 28.3537 17.9139L30.1633 12.1421L25.3547 8.79346C25.1554 8.64812 25.0074 8.44453 24.9316 8.2115C24.8559 7.97847 24.8561 7.72779 24.9324 7.49492C25.0093 7.26261 25.1581 7.06006 25.3578 6.91589C25.5576 6.77173 25.7981 6.69323 26.0454 6.6915L32.001 6.68266L33.8971 1.05406C33.9754 0.822185 34.1254 0.620517 34.3261 0.477613C34.5268 0.334709 34.7678 0.257813 35.0152 0.257812C35.2625 0.257812 35.5036 0.334709 35.7042 0.477613C35.9049 0.620517 36.055 0.822185 36.1332 1.05406L37.9971 6.68266L43.9831 6.6915C44.2307 6.69289 44.4716 6.77134 44.6715 6.91572C44.8715 7.06011 45.0203 7.26308 45.0968 7.4958C45.1733 7.72852 45.1737 7.97916 45.0979 8.21211C45.0221 8.44506 44.8739 8.64848 44.6744 8.79346L39.8658 12.1421L41.6755 17.9139C41.7507 18.1467 41.7497 18.3971 41.6726 18.6293C41.5955 18.8615 41.4462 19.0637 41.246 19.2072C41.0454 19.3526 40.803 19.4309 40.5541 19.4306Z" fill="#EE2737"/>
<path d="M16.0847 19.4306C15.8466 19.4306 15.6096 19.3575 15.4057 19.2119L10.6105 15.7731L5.81541 19.2119C5.61674 19.3548 5.37799 19.4313 5.13325 19.4305C4.88851 19.4296 4.6503 19.3515 4.45262 19.2072C4.25476 19.0637 4.10718 18.8615 4.03088 18.6293C3.95458 18.3971 3.95344 18.1468 4.02763 17.9139L5.816 12.1421L1.06391 8.79346C0.866969 8.64812 0.720707 8.44453 0.645815 8.2115C0.570924 7.97847 0.571194 7.72779 0.646587 7.49492C0.722575 7.26261 0.869648 7.06006 1.06702 6.91589C1.26439 6.77173 1.50208 6.69323 1.74649 6.6915L7.63208 6.68266L9.50592 1.05406C9.58325 0.822185 9.73156 0.620517 9.92987 0.477613C10.1282 0.334709 10.3664 0.257813 10.6108 0.257812C10.8553 0.257812 11.0935 0.334709 11.2918 0.477613C11.4901 0.620517 11.6384 0.822185 11.7157 1.05406L13.5577 6.68266L19.4734 6.6915C19.7181 6.69289 19.9561 6.77134 20.1537 6.91572C20.3513 7.06011 20.4983 7.26308 20.574 7.4958C20.6496 7.72852 20.65 7.97916 20.5751 8.21211C20.5001 8.44506 20.3537 8.64848 20.1566 8.79346L15.4045 12.1421L17.1928 17.9139C17.2672 18.1467 17.2662 18.3971 17.19 18.6293C17.1138 18.8615 16.9663 19.0637 16.7684 19.2072C16.5702 19.3526 16.3306 19.4309 16.0847 19.4306Z" fill="#EE2737"/>
</svg>
