<svg width="40" height="40" viewBox="0 0 40 40" fill="none" xmlns="http://www.w3.org/2000/svg">
<mask id="mask0_4025_1884" style="mask-type:alpha" maskUnits="userSpaceOnUse" x="0" y="0" width="40" height="40">
<rect width="40" height="40" fill="#D9D9D9"/>
</mask>
<g mask="url(#mask0_4025_1884)">
<path d="M25.5026 27.832L27.8359 25.4987L21.6693 19.332V11.6654H18.3359V20.6654L25.5026 27.832ZM20.0026 36.6654C17.697 36.6654 15.5304 36.2279 13.5026 35.3529C11.4748 34.4779 9.71094 33.2904 8.21094 31.7904C6.71094 30.2904 5.52344 28.5265 4.64844 26.4987C3.77344 24.4709 3.33594 22.3043 3.33594 19.9987C3.33594 17.6931 3.77344 15.5265 4.64844 13.4987C5.52344 11.4709 6.71094 9.70703 8.21094 8.20703C9.71094 6.70703 11.4748 5.51953 13.5026 4.64453C15.5304 3.76953 17.697 3.33203 20.0026 3.33203C22.3082 3.33203 24.4748 3.76953 26.5026 4.64453C28.5304 5.51953 30.2943 6.70703 31.7943 8.20703C33.2943 9.70703 34.4818 11.4709 35.3568 13.4987C36.2318 15.5265 36.6693 17.6931 36.6693 19.9987C36.6693 22.3043 36.2318 24.4709 35.3568 26.4987C34.4818 28.5265 33.2943 30.2904 31.7943 31.7904C30.2943 33.2904 28.5304 34.4779 26.5026 35.3529C24.4748 36.2279 22.3082 36.6654 20.0026 36.6654Z" fill="#EE2737"/>
</g>
</svg>
