<svg width="36" height="36" viewBox="0 0 36 36" fill="none" xmlns="http://www.w3.org/2000/svg">
<mask id="mask0_4557_2082" style="mask-type:alpha" maskUnits="userSpaceOnUse" x="0" y="0" width="36" height="36">
<rect width="36" height="36" fill="#D9D9D9"/>
</mask>
<g mask="url(#mask0_4557_2082)">
<path d="M29.0238 32.6996V8.32461H30.2238C31.3168 8.32461 32.2526 8.71386 33.0311 9.49236C33.8096 10.2709 34.1988 11.2066 34.1988 12.2996V28.7246C34.1988 29.8179 33.8096 30.7536 33.0311 31.5319C32.2526 32.3104 31.3168 32.6996 30.2238 32.6996H29.0238ZM14.9238 8.32461H21.0738V5.32461H14.9238V8.32461ZM10.9488 32.6996V5.32461C10.9488 4.23161 11.3381 3.29586 12.1166 2.51736C12.8948 1.73886 13.8306 1.34961 14.9238 1.34961H21.0738C22.1668 1.34961 23.1026 1.73886 23.8811 2.51736C24.6596 3.29586 25.0488 4.23161 25.0488 5.32461V32.6996H10.9488ZM5.77383 32.6996C4.68083 32.6996 3.74508 32.3104 2.96658 31.5319C2.18808 30.7536 1.79883 29.8179 1.79883 28.7246V12.2996C1.79883 11.2066 2.18808 10.2709 2.96658 9.49236C3.74508 8.71386 4.68083 8.32461 5.77383 8.32461H6.97383V32.6996H5.77383Z" fill="#EE2737"/>
</g>
</svg>
