<svg width="40" height="40" viewBox="0 0 40 40" fill="none" xmlns="http://www.w3.org/2000/svg">
<mask id="mask0_4025_1879" style="mask-type:alpha" maskUnits="userSpaceOnUse" x="0" y="0" width="40" height="40">
<rect width="40" height="40" fill="#D9D9D9"/>
</mask>
<g mask="url(#mask0_4025_1879)">
<path d="M20.0026 36.6654C17.697 36.6654 15.5304 36.2279 13.5026 35.3529C11.4748 34.4779 9.71094 33.2904 8.21094 31.7904C6.71094 30.2904 5.52344 28.5265 4.64844 26.4987C3.77344 24.4709 3.33594 22.3043 3.33594 19.9987C3.33594 17.6931 3.77344 15.5265 4.64844 13.4987C5.52344 11.4709 6.71094 9.70703 8.21094 8.20703C9.71094 6.70703 11.4748 5.51953 13.5026 4.64453C15.5304 3.76953 17.697 3.33203 20.0026 3.33203C22.3082 3.33203 24.4748 3.76953 26.5026 4.64453C28.5304 5.51953 30.2943 6.70703 31.7943 8.20703C33.2943 9.70703 34.4818 11.4709 35.3568 13.4987C36.2318 15.5265 36.6693 17.6931 36.6693 19.9987C36.6693 22.3043 36.2318 24.4709 35.3568 26.4987C34.4818 28.5265 33.2943 30.2904 31.7943 31.7904C30.2943 33.2904 28.5304 34.4779 26.5026 35.3529C24.4748 36.2279 22.3082 36.6654 20.0026 36.6654ZM20.0026 29.1654C21.2526 27.9154 22.3637 26.6237 23.3359 25.2904C24.1693 24.1515 24.9332 22.9015 25.6276 21.5404C26.322 20.1793 26.6693 18.832 26.6693 17.4987C26.6693 15.6654 26.0165 14.0959 24.7109 12.7904C23.4054 11.4848 21.8359 10.832 20.0026 10.832C18.1693 10.832 16.5998 11.4848 15.2943 12.7904C13.9887 14.0959 13.3359 15.6654 13.3359 17.4987C13.3359 18.832 13.6832 20.1793 14.3776 21.5404C15.072 22.9015 15.8359 24.1515 16.6693 25.2904C17.6415 26.6237 18.7526 27.9154 20.0026 29.1654ZM20.0026 19.9987C19.3082 19.9987 18.7179 19.7556 18.2318 19.2695C17.7457 18.7834 17.5026 18.1931 17.5026 17.4987C17.5026 16.8043 17.7457 16.214 18.2318 15.7279C18.7179 15.2418 19.3082 14.9987 20.0026 14.9987C20.697 14.9987 21.2873 15.2418 21.7734 15.7279C22.2595 16.214 22.5026 16.8043 22.5026 17.4987C22.5026 18.1931 22.2595 18.7834 21.7734 19.2695C21.2873 19.7556 20.697 19.9987 20.0026 19.9987Z" fill="#EE2737"/>
</g>
</svg>
