<svg width="40" height="40" viewBox="0 0 40 40" fill="none" xmlns="http://www.w3.org/2000/svg">
<path d="M20.0445 0.5H19.9557C9.21386 0.5 0.505859 9.21057 0.505859 19.9556V20.0444C0.505859 30.7894 9.21386 39.5 19.9557 39.5H20.0445C30.7864 39.5 39.4944 30.7894 39.4944 20.0444V19.9556C39.4944 9.21057 30.7864 0.5 20.0445 0.5Z" fill="#EE2737"/>
<path d="M23.8008 25.7021C18.811 25.7021 14.7514 21.6399 14.75 16.6486C14.7514 15.3834 15.7813 14.3545 17.0434 14.3545C17.1732 14.3545 17.3016 14.3654 17.4245 14.3873C17.695 14.4324 17.9518 14.5239 18.1881 14.6619C18.2223 14.6824 18.2455 14.7152 18.2509 14.7535L18.7782 18.0778C18.785 18.1161 18.7727 18.1557 18.7468 18.1844C18.4558 18.5069 18.0843 18.7391 17.6704 18.8553L17.471 18.9113L17.5461 19.104C18.2264 20.8365 19.6114 22.2206 21.3448 22.9038L21.5375 22.9803L21.5934 22.7808C21.7095 22.3668 21.9418 21.9952 22.2641 21.7041C22.2874 21.6823 22.3188 21.6713 22.3502 21.6713C22.357 21.6713 22.3639 21.6713 22.372 21.6727L25.6954 22.2001C25.735 22.207 25.7678 22.2288 25.7883 22.263C25.9249 22.4994 26.0164 22.7576 26.0629 23.0281C26.0847 23.1484 26.0943 23.2755 26.0943 23.408C26.0943 24.6719 25.0657 25.7007 23.8008 25.7021Z" fill="#FDFDFD"/>
<path d="M32.6463 18.9034C32.3772 15.8619 30.984 13.0403 28.7233 10.9594C26.449 8.8661 23.4985 7.71289 20.4128 7.71289C13.6404 7.71289 8.13012 13.2248 8.13012 19.9992C8.13012 22.2728 8.75708 24.4877 9.9441 26.417L7.29688 32.2787L15.7726 31.3755C17.2465 31.9794 18.8064 32.2855 20.4114 32.2855C20.8335 32.2855 21.2665 32.2636 21.7009 32.2185C22.0834 32.1776 22.4699 32.1174 22.8497 32.0409C28.5211 30.8945 32.6613 25.8595 32.6941 20.0648V19.9992C32.6941 19.6303 32.6777 19.2614 32.645 18.9047L32.6463 18.9034ZM16.0991 28.8026L11.4098 29.3027L12.8099 26.1997L12.5299 25.824C12.5094 25.7967 12.4889 25.7693 12.4657 25.7379C11.25 24.0586 10.608 22.0747 10.608 20.0006C10.608 14.5925 15.0063 10.1928 20.4128 10.1928C25.4778 10.1928 29.771 14.1457 30.1849 19.1917C30.2067 19.4622 30.219 19.7341 30.219 20.0019C30.219 20.0784 30.2176 20.1536 30.2163 20.2342C30.1125 24.7582 26.953 28.6004 22.5328 29.5787C22.1954 29.6539 21.8498 29.7113 21.5056 29.7482C21.1477 29.7892 20.7802 29.8097 20.4155 29.8097C19.1165 29.8097 17.8544 29.5582 16.6619 29.0609C16.5294 29.0076 16.3996 28.9502 16.278 28.8915L16.1005 28.8054L16.0991 28.8026Z" fill="#FDFDFD"/>
</svg>
