<svg xmlns="http://www.w3.org/2000/svg" width="32" height="32" viewBox="0 0 32 32" fill="none">
  <path d="M16.0352 0C24.849 0 31.9941 7.14745 31.9941 15.9639V16.0361C31.9941 24.8526 24.849 32 16.0352 32H15.9629C7.14906 32 0.00390625 24.8526 0.00390625 16.0361V15.9639C0.00390625 7.14745 7.14906 0 15.9629 0H16.0352ZM16.332 5.9209C10.7755 5.92106 6.25415 10.4438 6.25391 16.002C6.25391 17.8675 6.76823 19.6855 7.74219 21.2686L5.57031 26.0781L12.5254 25.3369C13.7346 25.8323 15.0143 26.083 16.3311 26.083C16.6774 26.083 17.0332 26.0653 17.3896 26.0283C17.7033 25.9947 18.0206 25.9456 18.332 25.8828C22.9853 24.9422 26.3821 20.811 26.4092 16.0566V16.002C26.4092 15.6994 26.396 15.3969 26.3691 15.1045L26.3701 15.1035C26.1493 12.6079 25.0063 10.2924 23.1514 8.58496C21.2853 6.86741 18.8639 5.9209 16.332 5.9209ZM16.332 7.95605C20.4879 7.95605 24.011 11.1996 24.3506 15.3398C24.3685 15.5618 24.3789 15.7852 24.3789 16.0049C24.3789 16.0676 24.3771 16.1292 24.376 16.1953C24.2908 19.9071 21.6988 23.0594 18.0723 23.8623C17.7954 23.924 17.511 23.9717 17.2285 24.002C16.9351 24.0355 16.6339 24.0517 16.335 24.0518C15.2691 24.0518 14.2333 23.8455 13.2549 23.4375C13.1462 23.3938 13.0392 23.347 12.9395 23.2988L12.7939 23.2275L12.793 23.2256L8.94531 23.6357L10.0938 21.0898L9.86426 20.7812C9.84752 20.7589 9.83049 20.7366 9.81152 20.7109C8.81417 19.3332 8.28719 17.7056 8.28711 16.0039C8.28711 11.5666 11.8961 7.95622 16.332 7.95605ZM13.5732 11.373C12.5379 11.3732 11.6928 12.217 11.6914 13.2549C11.6925 17.3503 15.0239 20.6836 19.1182 20.6836C20.1558 20.6824 20.9998 19.8386 21 18.8018C21 18.6931 20.9915 18.5888 20.9736 18.4902C20.9356 18.2684 20.861 18.0562 20.749 17.8623C20.7323 17.8344 20.7052 17.8162 20.6729 17.8105L17.9453 17.3779C17.9387 17.3769 17.9333 17.377 17.9277 17.377C17.9021 17.377 17.8765 17.3855 17.8574 17.4033C17.5929 17.6421 17.4019 17.9474 17.3066 18.2871L17.2607 18.4502L17.1025 18.3877C15.6804 17.8271 14.5444 16.691 13.9863 15.2695L13.9238 15.1123L14.0879 15.0654C14.4273 14.9702 14.732 14.78 14.9707 14.5156C14.992 14.4921 15.0027 14.4591 14.9971 14.4277L14.5645 11.7002C14.5599 11.6689 14.5407 11.6418 14.5127 11.625C14.3188 11.5118 14.1076 11.4364 13.8857 11.3994C13.785 11.3815 13.6795 11.373 13.5732 11.373Z" fill="white"/>
</svg>