<svg width="32" height="32" viewBox="0 0 32 32" fill="none" xmlns="http://www.w3.org/2000/svg">
<path d="M16.041 0C24.8548 0 32 7.14745 32 15.9639V16.0361C32 24.8526 24.8548 32 16.041 32H15.9688C7.15492 32 0.00976562 24.8526 0.00976562 16.0361V15.9639C0.00976562 7.14745 7.15492 0 15.9688 0H16.041ZM16.3379 5.9209C10.7813 5.92106 6.26001 10.4438 6.25977 16.002C6.25977 17.8675 6.77409 19.6855 7.74805 21.2686L5.57617 26.0781L12.5312 25.3369C13.7404 25.8323 15.0202 26.083 16.3369 26.083C16.6832 26.083 17.0391 26.0653 17.3955 26.0283C17.7092 25.9947 18.0265 25.9456 18.3379 25.8828C22.9912 24.9422 26.3879 20.811 26.415 16.0566V16.002C26.415 15.6994 26.4019 15.3969 26.375 15.1045L26.376 15.1035C26.1552 12.6079 25.0121 10.2924 23.1572 8.58496C21.2911 6.86741 18.8697 5.9209 16.3379 5.9209ZM16.3379 7.95605C20.4938 7.95605 24.0168 11.1996 24.3564 15.3398C24.3744 15.5618 24.3848 15.7852 24.3848 16.0049C24.3848 16.0676 24.383 16.1292 24.3818 16.1953C24.2966 19.9071 21.7047 23.0594 18.0781 23.8623C17.8013 23.924 17.5168 23.9717 17.2344 24.002C16.941 24.0355 16.6398 24.0517 16.3408 24.0518C15.275 24.0518 14.2391 23.8455 13.2607 23.4375C13.152 23.3938 13.0451 23.347 12.9453 23.2988L12.7998 23.2275L12.7988 23.2256L8.95117 23.6357L10.0996 21.0898L9.87012 20.7812C9.85338 20.7589 9.83635 20.7366 9.81738 20.7109C8.82002 19.3332 8.29305 17.7056 8.29297 16.0039C8.29297 11.5666 11.902 7.95622 16.3379 7.95605ZM13.5791 11.373C12.5438 11.3732 11.6986 12.217 11.6973 13.2549C11.6984 17.3503 15.0298 20.6836 19.124 20.6836C20.1617 20.6824 21.0057 19.8386 21.0059 18.8018C21.0059 18.6931 20.9974 18.5888 20.9795 18.4902C20.9414 18.2684 20.8668 18.0562 20.7549 17.8623C20.7381 17.8344 20.7111 17.8162 20.6787 17.8105L17.9512 17.3779C17.9446 17.3769 17.9391 17.377 17.9336 17.377C17.9079 17.377 17.8823 17.3855 17.8633 17.4033C17.5988 17.6421 17.4078 17.9474 17.3125 18.2871L17.2666 18.4502L17.1084 18.3877C15.6863 17.8271 14.5503 16.691 13.9922 15.2695L13.9297 15.1123L14.0938 15.0654C14.4332 14.9702 14.7379 14.78 14.9766 14.5156C14.9979 14.4921 15.0085 14.4591 15.0029 14.4277L14.5703 11.7002C14.5658 11.6689 14.5465 11.6418 14.5186 11.625C14.3247 11.5118 14.1135 11.4364 13.8916 11.3994C13.7909 11.3815 13.6854 11.373 13.5791 11.373Z" fill="#003B5C"/>
</svg>
