<svg width="68" height="68" viewBox="0 0 68 68" fill="none" xmlns="http://www.w3.org/2000/svg">
<rect width="68" height="68" rx="34" fill="#D9D9D9"/>
<mask id="mask0_4100_423" style="mask-type:alpha" maskUnits="userSpaceOnUse" x="16" y="16" width="36" height="36">
<rect x="16" y="16" width="36" height="36" fill="#D9D9D9"/>
</mask>
<g mask="url(#mask0_4100_423)">
<path d="M32.5 47.5V44.5H44.5V33.85C44.5 30.925 43.4813 28.4437 41.4438 26.4062C39.4062 24.3688 36.925 23.35 34 23.35C31.075 23.35 28.5938 24.3688 26.5562 26.4062C24.5187 28.4437 23.5 30.925 23.5 33.85V43H22C21.175 43 20.4688 42.7063 19.8813 42.1188C19.2938 41.5312 19 40.825 19 40V37C19 36.475 19.1313 35.9812 19.3938 35.5187C19.6562 35.0562 20.025 34.6875 20.5 34.4125L20.6125 32.425C20.8125 30.725 21.3062 29.15 22.0938 27.7C22.8813 26.25 23.8687 24.9875 25.0562 23.9125C26.2438 22.8375 27.6063 22 29.1438 21.4C30.6813 20.8 32.3 20.5 34 20.5C35.7 20.5 37.3125 20.8 38.8375 21.4C40.3625 22 41.725 22.8312 42.925 23.8938C44.125 24.9563 45.1125 26.2125 45.8875 27.6625C46.6625 29.1125 47.1625 30.6875 47.3875 32.3875L47.5 34.3375C47.975 34.5625 48.3438 34.9 48.6063 35.35C48.8688 35.8 49 36.275 49 36.775V40.225C49 40.725 48.8688 41.2 48.6063 41.65C48.3438 42.1 47.975 42.4375 47.5 42.6625V44.5C47.5 45.325 47.2063 46.0312 46.6188 46.6188C46.0312 47.2063 45.325 47.5 44.5 47.5H32.5ZM29.5 37C29.075 37 28.7188 36.8563 28.4312 36.5688C28.1438 36.2813 28 35.925 28 35.5C28 35.075 28.1438 34.7188 28.4312 34.4313C28.7188 34.1438 29.075 34 29.5 34C29.925 34 30.2812 34.1438 30.5688 34.4313C30.8562 34.7188 31 35.075 31 35.5C31 35.925 30.8562 36.2813 30.5688 36.5688C30.2812 36.8563 29.925 37 29.5 37ZM38.5 37C38.075 37 37.7188 36.8563 37.4313 36.5688C37.1438 36.2813 37 35.925 37 35.5C37 35.075 37.1438 34.7188 37.4313 34.4313C37.7188 34.1438 38.075 34 38.5 34C38.925 34 39.2812 34.1438 39.5688 34.4313C39.8563 34.7188 40 35.075 40 35.5C40 35.925 39.8563 36.2813 39.5688 36.5688C39.2812 36.8563 38.925 37 38.5 37ZM25.0375 34.675C24.8625 32.025 25.6625 29.75 27.4375 27.85C29.2125 25.95 31.425 25 34.075 25C36.3 25 38.2563 25.7062 39.9438 27.1187C41.6313 28.5312 42.65 30.3375 43 32.5375C40.725 32.5125 38.6313 31.9 36.7188 30.7C34.8062 29.5 33.3375 27.875 32.3125 25.825C31.9125 27.825 31.0688 29.6062 29.7812 31.1688C28.4937 32.7313 26.9125 33.9 25.0375 34.675Z" fill="#EE2737"/>
</g>
</svg>
