<svg width="68" height="68" viewBox="0 0 68 68" fill="none" xmlns="http://www.w3.org/2000/svg">
<rect width="68" height="68" rx="34" fill="#D9D9D9"/>
<mask id="mask0_4100_420" style="mask-type:alpha" maskUnits="userSpaceOnUse" x="16" y="16" width="36" height="36">
<rect x="16" y="16" width="36" height="36" fill="#D9D9D9"/>
</mask>
<g mask="url(#mask0_4100_420)">
<path d="M32.4992 50.4247V47.4247C29.3742 47.0747 26.693 45.781 24.4555 43.5435C22.218 41.306 20.9242 38.6247 20.5742 35.4997H17.5742V32.4997H20.5742C20.9242 29.3747 22.218 26.6935 24.4555 24.456C26.693 22.2185 29.3742 20.9247 32.4992 20.5747V17.5747H35.4992V20.5747C38.6242 20.9247 41.3055 22.2185 43.543 24.456C45.7805 26.6935 47.0742 29.3747 47.4242 32.4997H50.4242V35.4997H47.4242C47.0742 38.6247 45.7805 41.306 43.543 43.5435C41.3055 45.781 38.6242 47.0747 35.4992 47.4247V50.4247H32.4992ZM33.9992 44.4997C36.8992 44.4997 39.3742 43.4747 41.4242 41.4247C43.4742 39.3747 44.4992 36.8997 44.4992 33.9997C44.4992 31.0997 43.4742 28.6247 41.4242 26.5747C39.3742 24.5247 36.8992 23.4997 33.9992 23.4997C31.0992 23.4997 28.6242 24.5247 26.5742 26.5747C24.5242 28.6247 23.4992 31.0997 23.4992 33.9997C23.4992 36.8997 24.5242 39.3747 26.5742 41.4247C28.6242 43.4747 31.0992 44.4997 33.9992 44.4997ZM33.9992 39.9997C32.3492 39.9997 30.9367 39.4122 29.7617 38.2372C28.5867 37.0622 27.9992 35.6497 27.9992 33.9997C27.9992 32.3497 28.5867 30.9372 29.7617 29.7622C30.9367 28.5872 32.3492 27.9997 33.9992 27.9997C35.6492 27.9997 37.0617 28.5872 38.2367 29.7622C39.4117 30.9372 39.9992 32.3497 39.9992 33.9997C39.9992 35.6497 39.4117 37.0622 38.2367 38.2372C37.0617 39.4122 35.6492 39.9997 33.9992 39.9997Z" fill="#EE2737"/>
</g>
</svg>
