<svg width="76" height="73" viewBox="0 0 76 73" fill="none" xmlns="http://www.w3.org/2000/svg">
<path d="M36.7957 42.3064L25.9541 42.8274H25.7847C25.2961 42.8274 24.8009 42.7167 24.3578 42.5018L10.0957 35.5854V57.5588C10.0957 58.412 10.5713 59.1935 11.3271 59.5973L36.6979 72.9611C36.7305 72.9806 36.7631 72.9806 36.7957 73.0001V42.3064Z" fill="#003B5C"/>
<path d="M51.1878 42.5018C50.7448 42.7167 50.2496 42.8274 49.761 42.8274H49.5981L38.75 42.3064V72.9936C38.7826 72.9806 38.8152 72.9741 38.8477 72.9545L64.2186 59.5908C64.9744 59.187 65.45 58.4055 65.45 57.5523V35.5854L51.1878 42.5018Z" fill="#003B5C"/>
<path d="M33.7397 14.4328L10.4408 26.7546L3.2543 16.9662C2.77868 16.3215 2.98717 15.4032 3.69734 15.032L28.1951 2.03289C28.7685 1.73331 29.4721 1.88961 29.8631 2.41062L33.3488 6.76752C32.8731 7.23643 32.5734 7.8942 32.5734 8.61709V12.2641C32.5734 13.1694 33.036 13.9704 33.7397 14.4328Z" fill="#003B5C"/>
<path d="M72.292 16.9662L65.1056 26.7546L41.8262 14.4458C42.5429 13.9834 43.012 13.1759 43.012 12.2641V8.61709C43.012 7.88768 42.7057 7.2234 42.2171 6.74799L45.6833 2.41062C46.0742 1.88961 46.7778 1.73331 47.3512 2.03289L71.849 15.032C72.5592 15.4032 72.7676 16.3215 72.292 16.9662Z" fill="#003B5C"/>
<path d="M10.4452 26.7549L0.958853 27.6145C0.281256 27.6471 0.0923404 28.5654 0.704785 28.8584L25.2091 40.7374C25.411 40.835 25.626 40.8806 25.8476 40.8676L37.7707 40.301L10.4452 26.7549Z" fill="#003B5C"/>
<path d="M74.5898 27.6145L65.1034 26.7549L37.7715 40.301L49.6946 40.8676C49.9162 40.8806 50.1377 40.835 50.3331 40.7374L74.8374 28.8584C75.4564 28.5654 75.2674 27.6471 74.5898 27.6145Z" fill="#003B5C"/>
<path d="M37.7738 32.4398C37.233 32.4398 36.7313 32.1923 36.4056 31.769L32.0012 26.0705C31.6949 25.6797 31.6428 25.1522 31.8643 24.7093C32.0859 24.26 32.5289 23.9865 33.0241 23.9865H34.5031L34.5357 17.8386C34.5357 17.4804 34.8288 17.1938 35.1872 17.1938H40.4125C40.5884 17.1938 40.7513 17.2655 40.8751 17.3827C40.9989 17.5064 41.0641 17.6693 41.0641 17.8451L41.0575 23.993L42.5235 23.9799C43.0252 23.9799 43.4682 24.26 43.6897 24.7028C43.9113 25.1522 43.8526 25.6732 43.5529 26.064L39.1485 31.7625C38.8163 32.1923 38.3145 32.4398 37.7738 32.4398Z" fill="#003B5C"/>
<path d="M37.7738 32.4398C37.233 32.4398 36.7313 32.1923 36.4056 31.769L32.0012 26.0705C31.6949 25.6797 31.6428 25.1522 31.8643 24.7093C32.0859 24.26 32.5289 23.9865 33.0241 23.9865H34.5031L34.5357 17.8386C34.5357 17.4804 34.8288 17.1938 35.1872 17.1938H40.4125C40.5884 17.1938 40.7513 17.2655 40.8751 17.3827C40.9989 17.5064 41.0641 17.6693 41.0641 17.8451L41.0575 23.993L42.5235 23.9799C43.0252 23.9799 43.4682 24.26 43.6897 24.7028C43.9113 25.1522 43.8526 25.6732 43.5529 26.064L39.1485 31.7625C38.8163 32.1923 38.3145 32.4398 37.7738 32.4398Z" fill="#003B5C"/>
<path d="M35.1789 12.9144C34.8205 12.9144 34.5273 12.6213 34.5273 12.2631V8.6161C34.5273 8.25791 34.8205 7.96484 35.1789 7.96484H40.4107C40.7691 7.96484 41.0623 8.25791 41.0623 8.6161V12.2631C41.0623 12.6213 40.7691 12.9144 40.4107 12.9144H35.1789Z" fill="#003B5C"/>
<path d="M35.1789 12.9144C34.8205 12.9144 34.5273 12.6213 34.5273 12.2631V8.6161C34.5273 8.25791 34.8205 7.96484 35.1789 7.96484H40.4107C40.7691 7.96484 41.0623 8.25791 41.0623 8.6161V12.2631C41.0623 12.6213 40.7691 12.9144 40.4107 12.9144H35.1789Z" fill="#003B5C"/>
<path d="M35.1574 3.59494C34.7991 3.59494 34.5059 3.30187 34.5059 2.94368V1.7649C34.5059 0.78802 35.3007 0 36.2715 0H39.2686C40.2459 0 41.0343 0.794533 41.0343 1.7649V2.94368C41.0343 3.30187 40.7411 3.59494 40.3827 3.59494H35.1574Z" fill="#003B5C"/>
<path d="M35.1574 3.59494C34.7991 3.59494 34.5059 3.30187 34.5059 2.94368V1.7649C34.5059 0.78802 35.3007 0 36.2715 0H39.2686C40.2459 0 41.0343 0.794533 41.0343 1.7649V2.94368C41.0343 3.30187 40.7411 3.59494 40.3827 3.59494H35.1574Z" fill="#003B5C"/>
</svg>
