<svg width="72" height="73" viewBox="0 0 72 73" fill="none" xmlns="http://www.w3.org/2000/svg">
<path d="M11.5729 21.8972C11.7119 21.7899 11.8509 21.6951 12.0089 21.613L44.0759 5.38747L34.4526 0.322111C33.6438 -0.10737 32.6834 -0.10737 31.8746 0.322111L1.47574 16.3329C1.33673 16.4087 1.20404 16.4972 1.08398 16.5919L11.5729 21.8972Z" fill="white"/>
<path d="M21.4355 26.8872L32.3478 32.4073C32.8596 32.6663 33.4725 32.6663 33.9906 32.4073L65.2489 16.5923C65.1225 16.4976 64.9961 16.4092 64.8571 16.3334L53.7426 10.4785L21.8778 26.603C21.7136 26.6851 21.5746 26.7862 21.4355 26.8872Z" fill="white"/>
<path d="M66.3217 18.7779V42.4499C64.6346 41.6478 62.758 41.1994 60.774 41.1994C53.615 41.1994 47.7955 47.0226 47.7955 54.1722C47.7955 57.9049 49.3815 61.2776 51.9153 63.6461L34.4506 72.8484C34.3369 72.9052 34.2231 72.9557 34.1094 73V34.3782C34.3621 34.3087 34.6022 34.2203 34.836 34.1066L66.2585 18.2095C66.2964 18.3926 66.3217 18.5821 66.3217 18.7779Z" fill="white"/>
<path d="M32.2123 34.3718C31.9659 34.3087 31.7195 34.2202 31.4857 34.1002L20.4155 28.498C20.3776 28.6812 20.3523 28.8707 20.3523 29.0665V43.353C20.3523 44.5973 18.8358 45.2036 17.9702 44.3067L15.2342 41.452C14.9056 41.1046 14.4191 40.9593 13.9515 41.0604L12.1633 41.4456C11.304 41.6288 10.4952 40.9719 10.4952 40.094V24.0769C10.4952 23.8811 10.5205 23.6979 10.5584 23.5085L0.0631901 18.1968C0.0252783 18.3799 0 18.5694 0 18.7652V54.3869C0 55.4101 0.568677 56.3512 1.47224 56.8249L31.8711 72.8357C31.9849 72.8925 32.0986 72.9431 32.2123 72.9873V34.3718Z" fill="white"/>
<path d="M70.7771 49.4159L62.7145 56.6919C62.0384 57.3677 61.1349 57.715 60.225 57.715C59.3025 57.715 58.38 57.3677 57.6723 56.6603L56.3643 55.3529C55.9915 54.9802 55.9915 54.3802 56.3643 54.0139C56.7371 53.6413 57.3374 53.6413 57.7039 54.0139L59.0118 55.3213C59.6753 55.9845 60.7494 55.9845 61.4066 55.3213L69.684 47.8433C69.7219 47.8117 69.7661 47.7991 69.804 47.7675C67.7947 44.938 64.5027 43.0874 60.7684 43.0874C54.6457 43.0874 49.6855 48.0454 49.6855 54.1655C49.6855 60.2856 54.6457 65.2436 60.7684 65.2436C66.8912 65.2436 71.8513 60.2856 71.8513 54.1655C71.8576 52.4665 71.4658 50.8623 70.7771 49.4159Z" fill="white"/>
</svg>
