<svg width="133" height="73" viewBox="0 0 133 73" fill="none" xmlns="http://www.w3.org/2000/svg">
<path d="M43.4746 32.8286C44.6137 25.9866 42.6047 18.7511 38.1208 13.4617C33.9786 8.57599 28.3348 5.88477 22.225 5.88477C16.1152 5.88477 10.4715 8.57599 6.32925 13.4617C1.8453 18.7511 -0.153306 25.9866 0.975448 32.8286C2.70482 43.2315 12.2319 45.1361 14.4169 45.4466C15.1004 45.9124 15.8667 46.3161 16.6848 46.6473C16.2913 48.1068 15.4629 48.5106 13.7645 49.2972C13.0914 49.6078 12.3251 49.9597 11.4967 50.4462C8.61784 52.1024 6.60886 53.5929 4.2685 56.6879C3.48148 57.7333 3.19154 58.7788 3.40901 59.7932C3.74038 61.2941 5.09695 62.1636 6.08072 62.6915C9.25987 64.3891 16.167 66.1384 22.225 66.1384C28.283 66.1384 35.1901 64.3891 38.3693 62.6915C39.3634 62.1636 40.7097 61.2941 41.041 59.7932C41.2689 58.7892 40.9789 57.7437 40.1815 56.6879C37.8412 53.5929 35.8426 52.1127 32.9534 50.4462C32.1249 49.9701 31.3586 49.6181 30.6855 49.2972C28.9872 48.5106 28.1587 48.1069 27.7549 46.637C28.573 46.3058 29.3393 45.902 30.0227 45.4362C32.2181 45.1257 41.7452 43.2315 43.4746 32.8286ZM24.7621 47.4547C25.1349 48.8004 25.7355 49.7113 26.4708 50.3841C25.342 50.705 23.9648 50.912 22.1732 50.8913C20.4128 50.912 19.0666 50.6946 17.9689 50.3841C18.7041 49.7113 19.3048 48.8004 19.6776 47.4651C20.5888 47.6203 21.4587 47.6928 22.2147 47.7031C22.9706 47.6928 23.8405 47.61 24.7621 47.4547ZM25.0314 44.2459C23.9854 44.4633 22.981 44.5874 22.2147 44.5874C21.438 44.5874 20.4335 44.4633 19.3876 44.2459C14.1788 43.159 11.828 37.8903 11.2274 36.3066C10.575 34.5779 10.223 32.1558 10.1712 29.1229C14.0338 26.3799 19.6258 25.6346 22.1836 25.6346C22.2043 25.6346 22.2147 25.6346 22.2354 25.6346C24.7828 25.6346 30.3748 26.3799 34.2374 29.1229C34.1857 32.1558 33.8336 34.5779 33.1812 36.3066C32.5909 37.8903 30.2402 43.159 25.0314 44.2459Z" fill="#003B5C"/>
<path d="M91.1922 39.3279C91.4925 33.9764 91.7721 28.925 91.7617 25.0434C91.741 15.4169 86.149 6.17337 77.8439 2.05363C71.1438 -1.26907 63.7396 -0.534129 57.4952 4.07211C53.4669 5.32459 50.1014 8.92672 47.7507 14.506C44.1677 23.0146 45.0996 33.1173 46.0006 42.8783C46.6012 49.4306 47.2225 56.2002 46.4666 62.3591C45.7831 63.4149 45.5242 64.4604 45.7417 65.4644C46.1145 67.162 47.6989 68.1764 48.8587 68.7975C52.7317 70.8677 61.1715 73 68.5757 73C75.9592 73 84.3783 70.8573 88.2616 68.7975C89.4214 68.1867 90.9954 67.162 91.3682 65.4644C91.5857 64.4707 91.3372 63.4356 90.664 62.3901C90.2602 56.1381 90.7469 47.2258 91.1922 39.3279ZM65.148 50.1758C66.3492 50.4657 67.5194 50.6417 68.555 50.6417C69.5595 50.6417 70.6986 50.476 71.8584 50.2069C72.7593 53.7055 75.0065 54.7096 77.3675 55.7551C77.7921 55.9414 78.2167 56.1381 78.662 56.3451C76.1974 57.3595 73.0286 58.1462 68.5343 58.0945C64.1435 58.1669 61.0472 57.3698 58.5308 56.3037C58.9139 56.1174 59.2971 55.9414 59.6699 55.7758C62.0206 54.7096 64.2471 53.6952 65.148 50.1758ZM56.2112 37.5475C55.217 33.345 54.8856 30.3224 55.072 27.4345C55.4345 21.938 57.1535 17.3939 59.4421 15.862C59.9806 15.4997 60.5294 15.3134 61.1093 15.3134C61.4304 15.3134 61.7617 15.3651 62.1138 15.479C62.5488 15.6239 63.0148 15.5618 63.3979 15.334C65.9764 13.771 66.8774 14.6819 69.9116 18.3773C71.527 20.344 73.5256 22.7869 76.4252 25.0123C80.2464 27.9417 82.0172 32.8171 80.9505 37.4233C80.9505 37.4233 80.8367 37.8891 80.7849 38.0547C79.6768 41.9364 76.477 45.3833 72.6868 46.7393C71.2267 47.2568 69.7666 47.5363 68.5653 47.5363C67.3641 47.5363 65.9039 47.2568 64.4542 46.7393C60.4776 45.3212 57.1742 41.6258 56.2112 37.5475Z" fill="#003B5C"/>
<path d="M131.198 58.6632C128.754 55.4336 126.652 53.881 123.638 52.142L123.1 51.8314C120.262 50.2063 118.44 49.1505 117.808 46.3971C121.391 44.6167 124.146 41.4803 125.471 37.6607C127.781 37.6504 129.79 35.8389 130.618 33.6445C131.208 32.0815 131.188 30.4357 130.577 29.1211C130.266 28.4586 129.81 27.9204 129.251 27.496C131.85 10.81 123.773 6.6075 117.394 4.89957C112.692 3.64709 102.472 4.11285 100.162 10.8825C100.142 10.9342 100.1 11.0377 100.038 11.0791C95.1399 14.3087 93.8558 18.977 95.5748 27.5167C95.0363 27.9307 94.591 28.4587 94.2907 29.1108C93.6797 30.4254 93.659 32.0712 94.2493 33.6342C95.0777 35.8286 97.0867 37.6401 99.396 37.6504C100.711 41.4596 103.466 44.6063 107.059 46.3867C106.427 49.1297 104.605 50.1856 101.767 51.8107L101.208 52.1316C98.1948 53.8706 96.0926 55.4232 93.6487 58.6528C92.8306 59.7293 92.5406 60.8058 92.7684 61.8409C93.1102 63.3833 94.5082 64.2838 95.5334 64.8324C98.8575 66.6024 106.086 68.4346 112.434 68.4346C118.782 68.4346 125.999 66.6024 129.334 64.8324C130.359 64.2838 131.757 63.3833 132.099 61.8409C132.316 60.8265 132.016 59.75 131.198 58.6632ZM112.434 47.8359C113.2 47.8359 114.028 47.7117 114.878 47.5046C115.261 48.9227 115.892 50.0303 116.679 50.9516C115.551 51.3656 114.132 51.6968 112.392 51.6968C110.684 51.6968 109.306 51.3863 108.157 50.9723C108.954 50.051 109.596 48.9331 109.979 47.5046C110.839 47.7117 111.667 47.8359 112.434 47.8359ZM101.985 35.5595C101.933 35.3318 101.726 34.0069 101.529 32.2782C101.436 31.4294 100.659 30.8084 99.8102 30.9119C98.9611 31.005 98.3501 31.7813 98.4433 32.6301C98.5054 33.1787 98.5779 33.7791 98.6607 34.3381C98.0083 34.0068 97.4388 33.3236 97.1488 32.5577C96.8589 31.7813 96.8382 30.9947 97.0971 30.4357C97.2524 30.1045 97.4906 29.8871 97.8427 29.7628C98.0808 29.68 98.4226 29.6283 98.7643 29.618C100.048 29.5973 101.094 28.6657 101.27 27.4028C101.767 23.7178 103.901 18.0765 106.117 17.6314C106.717 17.5072 107.277 17.1966 107.722 16.7205C108.799 15.5819 111.74 14.8884 114.401 15.6544C116.193 16.1719 118.481 17.5382 119.196 21.099C119.268 21.4406 119.31 21.8132 119.351 22.1962C119.6 24.2975 119.972 27.4753 124.021 29.3385C124.56 29.5869 125.15 29.6904 125.74 29.6386C126.175 29.5972 126.704 29.6593 127.035 29.7732C127.377 29.8974 127.615 30.1148 127.77 30.4357C128.029 30.9947 128.008 31.7813 127.718 32.5473C127.428 33.3133 126.859 33.9965 126.206 34.3277C126.279 33.8205 126.341 33.2926 126.393 32.8061C126.496 31.9573 125.885 31.181 125.026 31.0878C124.177 30.9947 123.4 31.6054 123.307 32.4542C123.11 34.1103 122.924 35.3421 122.872 35.5491C121.515 41.1284 117.27 43.3435 115.499 44.0474C114.412 44.4822 113.324 44.7202 112.434 44.7202C111.543 44.7202 110.456 44.4821 109.358 44.037C107.598 43.3539 103.341 41.1284 101.985 35.5595Z" fill="#003B5C"/>
</svg>
