<svg width="17" height="16" viewBox="0 0 17 16" fill="none" xmlns="http://www.w3.org/2000/svg">
<g clip-path="url(#clip0_2718_631)">
<path d="M8.5 16.0093C12.9183 16.0093 16.5 12.4276 16.5 8.00928C16.5 3.591 12.9183 0.00927734 8.5 0.00927734C4.08172 0.00927734 0.5 3.591 0.5 8.00928C0.5 12.4276 4.08172 16.0093 8.5 16.0093Z" fill="#F0F0F0"/>
<path d="M16.5008 8.0099C16.5008 4.83821 14.655 2.09771 11.979 0.803711V15.2161C14.655 13.9221 16.5008 11.1816 16.5008 8.0099Z" fill="#D80027"/>
<path d="M0.500488 8.00941C0.500488 11.1811 2.34627 13.9216 5.02224 15.2156V0.803223C2.34627 2.09722 0.500488 4.83772 0.500488 8.00941Z" fill="#D80027"/>
<path d="M9.89168 9.05345L11.283 8.35779L10.5873 8.00998V7.31432L9.19602 8.00998L9.89168 6.61866H9.19602L8.50037 5.5752L7.80471 6.61866H7.10905L7.80471 8.00998L6.4134 7.31432V8.00998L5.71777 8.35779L7.10905 9.05345L6.76124 9.7491H8.15255V10.7926H8.84818V9.7491H10.2395L9.89168 9.05345Z" fill="#D80027"/>
</g>
<defs>
<clipPath id="clip0_2718_631">
<rect width="16" height="16" fill="white" transform="translate(0.5 0.00927734)"/>
</clipPath>
</defs>
</svg>
