<svg width="16" height="16" viewBox="0 0 16 16" fill="none" xmlns="http://www.w3.org/2000/svg">
<g clip-path="url(#clip0_2718_607)">
<path d="M8 16.0093C12.4183 16.0093 16 12.4276 16 8.00928C16 3.591 12.4183 0.00927734 8 0.00927734C3.58172 0.00927734 0 3.591 0 8.00928C0 12.4276 3.58172 16.0093 8 16.0093Z" fill="#F0F0F0"/>
<path d="M7.65137 8.00933H15.9992C15.9992 7.28727 15.9029 6.58777 15.7236 5.92236H7.65137V8.00933Z" fill="#D80027"/>
<path d="M7.65137 3.83502H14.825C14.3353 3.03589 13.7091 2.32955 12.9791 1.74805H7.65137V3.83502Z" fill="#D80027"/>
<path d="M8.00038 16.0091C9.88316 16.0091 11.6137 15.3584 12.9803 14.27H3.02051C4.38707 15.3584 6.1176 16.0091 8.00038 16.0091Z" fill="#D80027"/>
<path d="M1.17398 12.1827H14.8256C15.2188 11.5411 15.5237 10.8399 15.7242 10.0957H0.275391C0.475922 10.8399 0.780828 11.5411 1.17398 12.1827Z" fill="#D80027"/>
<path d="M3.70575 1.25859H4.43478L3.75666 1.75125L4.01569 2.5484L3.33759 2.05575L2.6595 2.5484L2.88325 1.85975C2.28619 2.35709 1.76287 2.93978 1.33162 3.58903H1.56522L1.13356 3.90262C1.06631 4.01481 1.00181 4.12878 0.94 4.24443L1.14612 4.87884L0.761563 4.59943C0.665969 4.80196 0.578531 5.00906 0.499938 5.22046L0.727031 5.91947H1.56522L0.887094 6.41212L1.14612 7.20928L0.468031 6.71662L0.0618437 7.01175C0.0211875 7.33856 0 7.67143 0 8.00928H8C8 3.59103 8 3.07015 8 0.00927734C6.41963 0.00927734 4.94641 0.467715 3.70575 1.25859ZM4.01569 7.20928L3.33759 6.71662L2.6595 7.20928L2.91853 6.41212L2.24041 5.91947H3.07859L3.33759 5.12231L3.59659 5.91947H4.43478L3.75666 6.41212L4.01569 7.20928ZM3.75666 4.08168L4.01569 4.87884L3.33759 4.38618L2.6595 4.87884L2.91853 4.08168L2.24041 3.58903H3.07859L3.33759 2.79187L3.59659 3.58903H4.43478L3.75666 4.08168ZM6.88525 7.20928L6.20716 6.71662L5.52906 7.20928L5.78809 6.41212L5.10997 5.91947H5.94816L6.20716 5.12231L6.46616 5.91947H7.30434L6.62622 6.41212L6.88525 7.20928ZM6.62622 4.08168L6.88525 4.87884L6.20716 4.38618L5.52906 4.87884L5.78809 4.08168L5.10997 3.58903H5.94816L6.20716 2.79187L6.46616 3.58903H7.30434L6.62622 4.08168ZM6.62622 1.75125L6.88525 2.5484L6.20716 2.05575L5.52906 2.5484L5.78809 1.75125L5.10997 1.25859H5.94816L6.20716 0.461434L6.46616 1.25859H7.30434L6.62622 1.75125Z" fill="#0052B4"/>
</g>
<defs>
<clipPath id="clip0_2718_607">
<rect width="16" height="16" fill="white" transform="translate(0 0.00927734)"/>
</clipPath>
</defs>
</svg>
