<svg width="16" height="16" viewBox="0 0 16 16" fill="none" xmlns="http://www.w3.org/2000/svg">
<g clip-path="url(#clip0_2718_623)">
<path d="M8 16.0093C12.4183 16.0093 16 12.4276 16 8.00928C16 3.591 12.4183 0.00927734 8 0.00927734C3.58172 0.00927734 0 3.591 0 8.00928C0 12.4276 3.58172 16.0093 8 16.0093Z" fill="#F0F0F0"/>
<path d="M15.9993 8.00892C15.9993 4.83723 14.1535 2.09673 11.4775 0.802734V15.2151C14.1535 13.9211 15.9993 11.1806 15.9993 8.00892Z" fill="#D80027"/>
<path d="M0 8.00892C0 11.1806 1.84578 13.9211 4.52175 15.2151V0.802734C1.84578 2.09673 0 4.83723 0 8.00892Z" fill="#6DA544"/>
<path d="M5.91309 8.00864C5.91309 9.16124 6.84746 10.0956 8.00005 10.0956C9.15265 10.0956 10.087 9.16124 10.087 8.00864V7.31299H5.91309V8.00864Z" fill="#6DA544"/>
<path d="M10.7821 6.61851H8.69508C8.69508 6.23432 8.38361 5.92285 7.99942 5.92285C7.61524 5.92285 7.30377 6.23432 7.30377 6.61851H5.2168C5.2168 7.00272 5.55145 7.31416 5.93561 7.31416H5.91245C5.91245 7.69838 6.22389 8.00982 6.60811 8.00982C6.60811 8.39403 6.91955 8.70547 7.30377 8.70547H8.69508C9.0793 8.70547 9.39074 8.39403 9.39074 8.00982C9.77496 8.00982 10.0864 7.69838 10.0864 7.31416H10.0632C10.4474 7.31416 10.7821 7.00272 10.7821 6.61851Z" fill="#FF9811"/>
</g>
<defs>
<clipPath id="clip0_2718_623">
<rect width="16" height="16" fill="white" transform="translate(0 0.00927734)"/>
</clipPath>
</defs>
</svg>
