<svg width="396" height="234" viewBox="0 0 396 234" fill="none" xmlns="http://www.w3.org/2000/svg">
<path d="M205.882 39.66C202.686 18.4951 217.137 16.6556 233.549 14.0208L316.379 0.746563C345.65 -3.12446 348.205 8.37035 368.021 27.9888L382.631 42.3799C390.561 50.1441 400.998 59.7081 391.519 71.4265C385.839 78.4479 377.275 78.1744 369.056 79.2665L342.947 82.6524C341.15 83.179 338.923 83.3158 337.056 83.5948L276.094 91.7526C253.701 94.7284 246.213 98.2788 231.673 76.7923L210.337 46.2879C208.854 44.2277 207.699 41.7166 206.043 39.8356L205.882 39.66Z" fill="#003B5C"/>
<path d="M52.9602 83.0654L28.8915 79.7496C20.6792 78.6844 10.1757 79.248 4.58718 71.93C-6.11376 57.9213 7.85768 48.168 16.1882 39.5122L39.0448 15.8824C56.9282 -1.77839 62.3735 -1.62224 85.9711 2.02244L169.233 14.9788C183.207 17.3144 192.782 22.465 190.318 38.3445C188.227 42.9417 185.242 46.6723 182.216 50.6698L162.706 78.3186C158.359 84.2397 154.373 89.9418 147.163 92.5924L143.573 93.5717C139.597 94.453 134.017 93.9366 129.994 93.2594L52.9602 83.0654Z" fill="#003B5C"/>
<path d="M190.314 38.3452L190.41 38.6676C192.049 44.4021 191.667 50.9995 191.664 56.9132L191.645 204.85C191.651 209.266 191.172 214.463 192.016 218.774C193.316 225.409 198.976 228.725 203.545 222.993C204.494 219.25 203.668 215.065 203.624 211.209L203.623 109.532L204.373 53.0745C204.422 50.1689 204.387 47.2107 205.099 44.379L205.879 39.6608L206.04 39.8363C207.697 41.7173 208.851 44.2284 210.334 46.2887L231.67 76.7931C246.21 98.2796 253.698 94.7291 276.091 91.7533L337.053 83.5955C338.92 83.3165 341.147 83.1798 342.944 82.6532L343.083 176.48C343.075 189.606 342.619 198.739 332.528 208.869L329.644 211.53C320.473 218.903 308.33 219.824 297.076 220.939L238.608 228.352C222.629 230.658 206.788 234.297 190.553 232.636L101.996 220.796C90.3658 219.706 77.8409 219.388 67.9287 212.438L67.4529 212.109C51.7997 201.135 52.8539 186.18 52.8409 169.623L52.8964 83.0662L129.991 93.2602C134.013 93.9374 139.593 94.4538 143.569 93.5724L147.159 92.5931C154.369 89.9425 158.355 84.2404 162.702 78.3193L182.213 50.6706C185.238 46.673 188.223 42.9424 190.314 38.3452Z" fill="#EE2737"/>
</svg>
