<svg width="100" height="100" viewBox="0 0 100 100" fill="none" xmlns="http://www.w3.org/2000/svg">
<rect width="100" height="100" fill="white"/>
<path d="M50.4839 16C69.5522 16 85 31.4908 85 50.6123C85 51.0641 85 51.5159 84.9678 51.9677H58.6423C58.0791 51.9677 57.5802 51.532 57.5641 50.9673L57.3228 42.5603C57.3228 42.0439 57.6446 41.6244 58.1273 41.463L66.1248 38.6714C67.1868 38.3003 67.1707 36.848 66.1248 36.4608L57.8216 33.411C57.3389 33.2335 57.0331 32.814 57.0331 32.3138L56.7756 23.5356C56.7435 22.4061 55.3757 21.9543 54.6838 22.8579L49.2449 29.8449C48.9391 30.2483 48.4403 30.4097 47.9576 30.2645L39.5417 27.7795C38.4636 27.4567 37.6108 28.6347 38.2544 29.5706L43.1462 36.7996C43.4359 37.2192 43.4198 37.7355 43.1462 38.1551L38.2544 45.5294C37.6269 46.4814 38.4636 47.6271 39.5417 47.3205L47.684 44.9807C48.1667 44.8355 48.6978 44.9807 48.9713 45.4003L52.6402 50.8705C52.9942 51.403 52.6723 52 52.1735 52H16.0322C16.0161 51.5482 16 51.0964 16 50.6445C16 31.5231 31.4478 16.0323 50.5161 16.0323" fill="#003B5C"/>
<path fill-rule="evenodd" clip-rule="evenodd" d="M76.8402 73H33.0462C28.6234 73 23.332 71.8123 21 68H70.4231C76.8563 68 77.3549 72.1789 76.8563 73" fill="#EE2737"/>
<path fill-rule="evenodd" clip-rule="evenodd" d="M82.976 63H26.4343C23.461 63 18.0447 61.6857 17 58H76.0971C82.9117 58 83.1528 62.3286 82.9599 63" fill="#EE2737"/>
<path fill-rule="evenodd" clip-rule="evenodd" d="M65.1113 82.1449C60.6798 83.9855 55.7451 85 50.5344 85C42.8563 85 35.7464 82.7681 30 79H66.5561C68.2767 79 69.1533 80.4638 65.1113 82.1449Z" fill="#EE2737"/>
</svg>
