<svg width="99" height="98" viewBox="0 0 99 98" fill="none" xmlns="http://www.w3.org/2000/svg">
<rect x="1.16602" width="97.5" height="97.5" rx="15" fill="white"/>
<path d="M48.6873 54.5564L37.8457 55.0774H37.6763C37.1877 55.0774 36.6925 54.9667 36.2494 54.7518L21.9873 47.8354V69.8088C21.9873 70.662 22.4629 71.4435 23.2187 71.8473L48.5895 85.2111C48.6221 85.2306 48.6547 85.2306 48.6873 85.2501V54.5564Z" fill="#003B5C"/>
<path d="M63.0794 54.7518C62.6364 54.9667 62.1412 55.0774 61.6526 55.0774H61.4897L50.6416 54.5564V85.2436C50.6742 85.2306 50.7068 85.2241 50.7393 85.2045L76.1102 71.8408C76.866 71.437 77.3416 70.6555 77.3416 69.8023V47.8354L63.0794 54.7518Z" fill="#003B5C"/>
<path d="M45.6313 26.6828L22.3324 39.0046L15.1459 29.2162C14.6703 28.5715 14.8788 27.6532 15.5889 27.282L40.0867 14.2829C40.6601 13.9833 41.3637 14.1396 41.7547 14.6606L45.2404 19.0175C44.7647 19.4864 44.465 20.1442 44.465 20.8671V24.5141C44.465 25.4194 44.9276 26.2204 45.6313 26.6828Z" fill="#003B5C"/>
<path d="M84.1846 29.2162L76.9981 39.0046L53.7188 26.6958C54.4354 26.2334 54.9046 25.4259 54.9046 24.5141V20.8671C54.9046 20.1377 54.5983 19.4734 54.1097 18.998L57.5758 14.6606C57.9668 14.1396 58.6704 13.9833 59.2438 14.2829L83.7416 27.282C84.4517 27.6532 84.6602 28.5715 84.1846 29.2162Z" fill="#003B5C"/>
<path d="M22.3378 39.0049L12.8514 39.8645C12.1738 39.8971 11.9849 40.8154 12.5974 41.1084L37.1016 52.9874C37.3036 53.085 37.5186 53.1306 37.7401 53.1176L49.6632 52.551L22.3378 39.0049Z" fill="#003B5C"/>
<path d="M86.4824 39.8645L76.996 39.0049L49.6641 52.551L61.5872 53.1176C61.8087 53.1306 62.0302 53.085 62.2257 52.9874L86.73 41.1084C87.3489 40.8154 87.16 39.8971 86.4824 39.8645Z" fill="#003B5C"/>
<path d="M49.6644 44.6898C49.1236 44.6898 48.622 44.4423 48.2962 44.019L43.8918 38.3205C43.5856 37.9297 43.5334 37.4022 43.755 36.9593C43.9765 36.51 44.4195 36.2365 44.9147 36.2365H46.3937L46.4263 30.0886C46.4263 29.7304 46.7195 29.4438 47.0778 29.4438H52.3032C52.4791 29.4438 52.6419 29.5155 52.7657 29.6327C52.8895 29.7564 52.9547 29.9193 52.9547 30.0951L52.9482 36.243L54.4141 36.2299C54.9158 36.2299 55.3588 36.51 55.5804 36.9528C55.8019 37.4022 55.7432 37.9232 55.4435 38.314L51.0392 44.0125C50.7069 44.4423 50.2052 44.6898 49.6644 44.6898Z" fill="#003B5C"/>
<path d="M49.6644 44.6898C49.1236 44.6898 48.622 44.4423 48.2962 44.019L43.8918 38.3205C43.5856 37.9297 43.5334 37.4022 43.755 36.9593C43.9765 36.51 44.4195 36.2365 44.9147 36.2365H46.3937L46.4263 30.0886C46.4263 29.7304 46.7195 29.4438 47.0778 29.4438H52.3032C52.4791 29.4438 52.6419 29.5155 52.7657 29.6327C52.8895 29.7564 52.9547 29.9193 52.9547 30.0951L52.9482 36.243L54.4141 36.2299C54.9158 36.2299 55.3588 36.51 55.5804 36.9528C55.8019 37.4022 55.7432 37.9232 55.4435 38.314L51.0392 44.0125C50.7069 44.4423 50.2052 44.6898 49.6644 44.6898Z" fill="#003B5C"/>
<path d="M47.0695 25.1644C46.7112 25.1644 46.418 24.8713 46.418 24.5131V20.8661C46.418 20.5079 46.7112 20.2148 47.0695 20.2148H52.3014C52.6597 20.2148 52.9529 20.5079 52.9529 20.8661V24.5131C52.9529 24.8713 52.6597 25.1644 52.3014 25.1644H47.0695Z" fill="#003B5C"/>
<path d="M47.0695 25.1644C46.7112 25.1644 46.418 24.8713 46.418 24.5131V20.8661C46.418 20.5079 46.7112 20.2148 47.0695 20.2148H52.3014C52.6597 20.2148 52.9529 20.5079 52.9529 20.8661V24.5131C52.9529 24.8713 52.6597 25.1644 52.3014 25.1644H47.0695Z" fill="#003B5C"/>
<path d="M47.0519 15.8449C46.6936 15.8449 46.4004 15.5519 46.4004 15.1937V14.0149C46.4004 13.038 47.1953 12.25 48.1661 12.25H51.1632C52.1405 12.25 52.9288 13.0445 52.9288 14.0149V15.1937C52.9288 15.5519 52.6356 15.8449 52.2773 15.8449H47.0519Z" fill="#003B5C"/>
<path d="M47.0519 15.8449C46.6936 15.8449 46.4004 15.5519 46.4004 15.1937V14.0149C46.4004 13.038 47.1953 12.25 48.1661 12.25H51.1632C52.1405 12.25 52.9288 13.0445 52.9288 14.0149V15.1937C52.9288 15.5519 52.6356 15.8449 52.2773 15.8449H47.0519Z" fill="#003B5C"/>
</svg>
