<svg width="98" height="98" viewBox="0 0 98 98" fill="none" xmlns="http://www.w3.org/2000/svg">
<rect x="0.5" width="97.5" height="97.5" rx="15" fill="white"/>
<path d="M24.6471 34.1472C24.7861 34.0399 24.9251 33.9451 25.0831 33.863L57.1501 17.6375L47.5268 12.5721C46.7181 12.1426 45.7576 12.1426 44.9488 12.5721L14.55 28.5829C14.4109 28.6587 14.2783 28.7472 14.1582 28.8419L24.6471 34.1472Z" fill="#003B5C"/>
<path d="M34.5098 39.1372L45.422 44.6573C45.9338 44.9163 46.5467 44.9163 47.0649 44.6573L78.3231 28.8423C78.1967 28.7476 78.0704 28.6592 77.9313 28.5834L66.8169 22.7285L34.9521 38.853C34.7878 38.9351 34.6488 39.0362 34.5098 39.1372Z" fill="#003B5C"/>
<path d="M79.3959 31.0279V54.6999C77.7089 53.8978 75.8322 53.4494 73.8482 53.4494C66.6892 53.4494 60.8697 59.2726 60.8697 66.4222C60.8697 70.1549 62.4557 73.5276 64.9895 75.8961L47.5248 85.0984C47.4111 85.1552 47.2973 85.2057 47.1836 85.25V46.6282C47.4363 46.5587 47.6765 46.4703 47.9102 46.3566L79.3327 30.4595C79.3706 30.6426 79.3959 30.8321 79.3959 31.0279Z" fill="#003B5C"/>
<path d="M45.2865 46.6218C45.0401 46.5587 44.7937 46.4702 44.5599 46.3502L33.4897 40.748C33.4518 40.9312 33.4265 41.1207 33.4265 41.3165V55.603C33.4265 56.8473 31.91 57.4536 31.0444 56.5567L28.3084 53.702C27.9798 53.3546 27.4933 53.2093 27.0257 53.3104L25.2376 53.6956C24.3782 53.8788 23.5694 53.2219 23.5694 52.344V36.3269C23.5694 36.1311 23.5947 35.9479 23.6326 35.7585L13.1374 30.4468C13.0995 30.6299 13.0742 30.8194 13.0742 31.0152V66.6369C13.0742 67.6601 13.6429 68.6012 14.5465 69.0749L44.9453 85.0857C45.0591 85.1425 45.1728 85.1931 45.2865 85.2373V46.6218Z" fill="#003B5C"/>
<path d="M83.8513 61.6659L75.7888 68.9419C75.1127 69.6177 74.2091 69.965 73.2992 69.965C72.3767 69.965 71.4542 69.6177 70.7465 68.9103L69.4386 67.6029C69.0658 67.2302 69.0658 66.6302 69.4386 66.2639C69.8114 65.8913 70.4116 65.8913 70.7781 66.2639L72.0861 67.5713C72.7495 68.2345 73.8237 68.2345 74.4808 67.5713L82.7582 60.0933C82.7961 60.0617 82.8403 60.0491 82.8783 60.0175C80.8689 57.188 77.5769 55.3374 73.8426 55.3374C67.7199 55.3374 62.7598 60.2954 62.7598 66.4155C62.7598 72.5356 67.7199 77.4936 73.8426 77.4936C79.9654 77.4936 84.9255 72.5356 84.9255 66.4155C84.9318 64.7165 84.5401 63.1123 83.8513 61.6659Z" fill="#003B5C"/>
</svg>
