<svg width="124" height="98" viewBox="0 0 124 98" fill="none" xmlns="http://www.w3.org/2000/svg">
<rect x="13.333" y="0.25" width="97.5" height="97.5" rx="15" fill="white"/>
<path d="M40.7118 45.5804C41.7729 39.2069 39.9015 32.467 35.7246 27.5399C31.8661 22.9888 26.6088 20.4819 20.9175 20.4819C15.2261 20.4819 9.96887 22.9888 6.11034 27.5399C1.93348 32.467 0.0717514 39.2069 1.1232 45.5804C2.73414 55.2707 11.6087 57.0449 13.6441 57.3341C14.2808 57.768 14.9946 58.144 15.7567 58.4526C15.3901 59.8121 14.6184 60.1882 13.0364 60.921C12.4094 61.2103 11.6956 61.5381 10.9239 61.9913C8.2422 63.534 6.3708 64.9225 4.19073 67.8055C3.45761 68.7793 3.18752 69.7532 3.3901 70.6981C3.69878 72.0962 4.96243 72.9061 5.87884 73.3979C8.84026 74.9792 15.2744 76.6087 20.9175 76.6087C26.5606 76.6087 32.9947 74.9792 35.9561 73.3979C36.8821 72.9061 38.1362 72.0962 38.4449 70.6981C38.6571 69.7628 38.387 68.789 37.6442 67.8055C35.4641 64.9225 33.6024 63.5437 30.9111 61.9913C30.1394 61.5477 29.4255 61.2199 28.7985 60.921C27.2165 60.1882 26.4448 59.8122 26.0686 58.443C26.8307 58.1344 27.5445 57.7584 28.1812 57.3245C30.2262 57.0352 39.1008 55.2707 40.7118 45.5804ZM23.2808 59.2047C23.6281 60.4582 24.1876 61.3067 24.8725 61.9334C23.821 62.2323 22.5381 62.4252 20.8692 62.4059C19.2294 62.4252 17.9753 62.2227 16.9528 61.9334C17.6377 61.3067 18.1972 60.4582 18.5445 59.2143C19.3934 59.359 20.2037 59.4265 20.9078 59.4361C21.612 59.4265 22.4223 59.3493 23.2808 59.2047ZM23.5316 56.2157C22.5573 56.4181 21.6217 56.5338 20.9078 56.5338C20.1844 56.5338 19.2487 56.4181 18.2744 56.2157C13.4223 55.2032 11.2326 50.2953 10.6731 48.8201C10.0653 47.2099 9.73738 44.9536 9.68915 42.1285C13.2872 39.5733 18.4962 38.8791 20.8789 38.8791C20.8982 38.8791 20.9078 38.8791 20.9271 38.8791C23.3001 38.8791 28.5091 39.5733 32.1072 42.1285C32.059 44.9536 31.731 47.2099 31.1233 48.8201C30.5735 50.2953 28.3837 55.2032 23.5316 56.2157Z" fill="#003B5C"/>
<path d="M85.163 51.6343C85.4428 46.6493 85.7032 41.9439 85.6936 38.3281C85.6743 29.3609 80.4653 20.7505 72.7289 16.913C66.4877 13.8179 59.5906 14.5025 53.7739 18.7932C50.0214 19.9599 46.8864 23.3153 44.6967 28.5124C41.359 36.4383 42.2272 45.849 43.0664 54.9415C43.6259 61.045 44.2047 67.351 43.5005 73.088C42.8639 74.0715 42.6227 75.0454 42.8253 75.9807C43.1725 77.562 44.6484 78.5069 45.7288 79.0854C49.3366 81.0138 57.1983 83.0001 64.0955 83.0001C70.9733 83.0001 78.8158 81.0042 82.4331 79.0854C83.5135 78.5165 84.9798 77.562 85.327 75.9807C85.5296 75.055 85.2981 74.0908 84.6711 73.1169C84.2949 67.2931 84.7483 58.9912 85.163 51.6343ZM60.9025 61.7392C62.0215 62.0092 63.1115 62.1731 64.0762 62.1731C65.0119 62.1731 66.0729 62.0188 67.1533 61.7681C67.9926 65.0272 70.0858 65.9625 72.2852 66.9363C72.6807 67.1099 73.0762 67.2931 73.491 67.486C71.1951 68.4309 68.2434 69.1637 64.0569 69.1155C59.9668 69.183 57.0826 68.4405 54.7385 67.4473C55.0954 67.2738 55.4523 67.1099 55.7996 66.9556C57.9893 65.9624 60.0633 65.0175 60.9025 61.7392ZM52.5777 49.9758C51.6517 46.0611 51.343 43.2456 51.5166 40.5554C51.8543 35.4355 53.4555 31.2026 55.5874 29.7755C56.089 29.4381 56.6003 29.2645 57.1405 29.2645C57.4395 29.2645 57.7482 29.3127 58.0762 29.4188C58.4813 29.5538 58.9154 29.4959 59.2723 29.2838C61.6742 27.8278 62.5135 28.6763 65.3398 32.1186C66.8447 33.9506 68.7064 36.2262 71.4074 38.2992C74.9669 41.0279 76.6164 45.5694 75.6228 49.8601C75.6228 49.8601 75.5167 50.294 75.4685 50.4483C74.4363 54.0641 71.4556 57.2749 67.9251 58.538C66.5649 59.0201 65.2048 59.2805 64.0858 59.2805C62.9668 59.2805 61.6067 59.0201 60.2562 58.538C56.552 57.2171 53.4748 53.7748 52.5777 49.9758Z" fill="#003B5C"/>
<path d="M122.427 69.6449C120.151 66.6365 118.192 65.1902 115.385 63.5704L114.884 63.281C112.241 61.7672 110.543 60.7837 109.954 58.2189C113.292 56.5605 115.858 53.6389 117.093 50.081C119.244 50.0713 121.115 48.3839 121.887 46.3398C122.437 44.8839 122.417 43.3508 121.848 42.1262C121.559 41.5091 121.134 41.0077 120.614 40.6124C123.035 25.0693 115.511 21.1546 109.568 19.5637C105.189 18.397 95.6681 18.8308 93.517 25.1368C93.4977 25.185 93.4591 25.2814 93.4012 25.32C88.8385 28.3283 87.6424 32.6769 89.2437 40.6317C88.7421 41.0174 88.3273 41.5092 88.0475 42.1166C87.4784 43.3412 87.4591 44.8743 88.0089 46.3302C88.7807 48.3744 90.652 50.0617 92.8032 50.0714C94.0283 53.6197 96.5942 56.5508 99.9415 58.2093C99.353 60.7644 97.6553 61.748 95.0122 63.2618L94.4913 63.5607C91.6842 65.1806 89.726 66.6269 87.4494 69.6352C86.6874 70.638 86.4173 71.6408 86.6295 72.605C86.9478 74.0417 88.2501 74.8805 89.2051 75.3916C92.3016 77.0404 99.0347 78.7471 104.948 78.7471C110.861 78.7471 117.585 77.0404 120.691 75.3916C121.646 74.8805 122.948 74.0417 123.266 72.605C123.469 71.6601 123.189 70.6573 122.427 69.6449ZM104.948 59.5592C105.662 59.5592 106.433 59.4435 107.224 59.2506C107.581 60.5716 108.17 61.6033 108.903 62.4615C107.851 62.8472 106.53 63.1557 104.909 63.1557C103.318 63.1557 102.035 62.8665 100.964 62.4808C101.707 61.6226 102.305 60.5813 102.662 59.2506C103.462 59.4435 104.234 59.5592 104.948 59.5592ZM95.2148 48.1236C95.1665 47.9115 94.9736 46.6773 94.7903 45.0671C94.7035 44.2765 93.98 43.6979 93.189 43.7943C92.398 43.8811 91.8289 44.6043 91.9157 45.3949C91.9736 45.9059 92.0411 46.4652 92.1183 46.9859C91.5105 46.6773 90.98 46.0409 90.7099 45.3274C90.4398 44.6042 90.4205 43.8715 90.6617 43.3508C90.8064 43.0422 91.0283 42.8397 91.3562 42.724C91.5781 42.6469 91.8964 42.5987 92.2147 42.5891C93.4109 42.5698 94.3852 41.702 94.5492 40.5256C95.0122 37.093 96.9993 31.8381 99.0636 31.4235C99.6231 31.3078 100.144 31.0185 100.559 30.575C101.562 29.5143 104.302 28.8683 106.781 29.5818C108.45 30.064 110.581 31.3367 111.247 34.6536C111.314 34.9718 111.353 35.3189 111.392 35.6756C111.623 37.633 111.97 40.5931 115.742 42.3287C116.244 42.5601 116.794 42.6565 117.343 42.6083C117.749 42.5697 118.241 42.6276 118.549 42.7337C118.868 42.8494 119.089 43.0519 119.234 43.3508C119.475 43.8715 119.456 44.6042 119.186 45.3178C118.916 46.0313 118.385 46.6677 117.778 46.9762C117.845 46.5038 117.903 46.012 117.951 45.5588C118.048 44.7682 117.478 44.045 116.678 43.9582C115.887 43.8715 115.163 44.4404 115.077 45.231C114.893 46.7737 114.72 47.9212 114.671 48.114C113.408 53.3111 109.453 55.3745 107.803 56.0302C106.79 56.4352 105.777 56.6569 104.948 56.6569C104.118 56.6569 103.105 56.4352 102.083 56.0206C100.443 55.3842 96.4784 53.3111 95.2148 48.1236Z" fill="#003B5C"/>
</svg>
