<svg width="10" height="10" viewBox="0 0 10 10" fill="none" xmlns="http://www.w3.org/2000/svg">
<mask id="mask0_1785_196" style="mask-type:alpha" maskUnits="userSpaceOnUse" x="0" y="0" width="10" height="10">
<rect width="10" height="10" fill="none"/>
</mask>
<g mask="url(#mask0_1785_196)">
<path d="M3.6872 6.94444C3.38184 6.94444 3.12383 6.83902 2.91319 6.62818C2.70254 6.41733 2.59721 6.15923 2.59721 5.85388C2.59721 5.54851 2.70263 5.29051 2.91348 5.07986C3.12432 4.86921 3.38242 4.76389 3.68778 4.76389C3.99314 4.76389 4.25115 4.86931 4.46179 5.08016C4.67244 5.291 4.77776 5.5491 4.77776 5.85446C4.77776 6.15982 4.67234 6.41782 4.4615 6.62847C4.25065 6.83911 3.99255 6.94444 3.6872 6.94444ZM1.90276 9.375C1.66857 9.375 1.46418 9.28771 1.28961 9.11315C1.11505 8.93858 1.02777 8.7342 1.02777 8.5V2.16666C1.02777 1.93246 1.11505 1.72808 1.28961 1.55351C1.46418 1.37895 1.66857 1.29167 1.90276 1.29167H2.27082V0.625H3.18054V1.29167H6.81944V0.625H7.72916V1.29167H8.09722C8.33141 1.29167 8.5358 1.37895 8.71037 1.55351C8.88493 1.72808 8.97221 1.93246 8.97221 2.16666V8.5C8.97221 8.7342 8.88493 8.93858 8.71037 9.11315C8.5358 9.28771 8.33141 9.375 8.09722 9.375H1.90276ZM1.90276 8.5H8.09722V3.95833H1.90276V8.5Z" fill="#fff"/>
</g>
</svg>
