<svg width="16" height="16" viewBox="0 0 16 16" fill="none" xmlns="http://www.w3.org/2000/svg">
<path d="M8 0C3.58288 0 0 3.58288 0 8C0 12.4171 3.58288 16 8 16C12.4171 16 16 12.4171 16 8C16 3.58288 12.4171 0 8 0ZM11.1489 4.03617H10.2134C9.29235 4.03617 9.00301 4.61001 9.00301 5.19831V6.59192H11.0621L10.7342 8.73779H9.00301V13.9313H6.67872V8.73779H4.79325V6.59192H6.67872V4.9572C6.67872 3.09584 7.78782 2.06872 9.48523 2.06872C10.3002 2.06872 11.1489 2.21338 11.1489 2.21338V4.04099V4.03617Z" fill="black"/>
</svg>
