<svg width="10" height="10" viewBox="0 0 10 10" fill="none" xmlns="http://www.w3.org/2000/svg">
<mask id="mask0_1926_697" style="mask-type:alpha" maskUnits="userSpaceOnUse" x="0" y="0" width="10" height="10">
<rect width="10" height="10" fill="none"/>
</mask>
<g mask="url(#mask0_1926_697)">
<path d="M0.236115 8.09723V1.61807H1.1111V5.88196H4.67361V2.50002H8.0625C8.53559 2.50002 8.93743 2.66531 9.26801 2.9959C9.59859 3.32648 9.76389 3.72831 9.76389 4.2014V8.09723H8.8889V6.75695H1.1111V8.09723H0.236115ZM2.8466 5.40973C2.49122 5.40973 2.19124 5.28718 1.94669 5.04208C1.70214 4.79699 1.57986 4.49606 1.57986 4.13931C1.57986 3.78256 1.70194 3.48149 1.94608 3.23612C2.19022 2.99076 2.48999 2.86807 2.84539 2.86807C3.20077 2.86807 3.50231 2.99026 3.74999 3.23465C3.99768 3.47903 4.12152 3.77908 4.12152 4.13481C4.12152 4.49247 3.99788 4.79437 3.7506 5.04052C3.50333 5.28666 3.202 5.40973 2.8466 5.40973Z" fill="white"/>
</g>
</svg>
