<svg width="16" height="16" viewBox="0 0 16 16" fill="none" xmlns="http://www.w3.org/2000/svg">
<g clip-path="url(#clip0_1488_89)">
<path d="M8.03858 6.47131C7.1947 6.47131 6.50995 7.15606 6.50995 7.99995C6.50995 8.84383 7.1947 9.52858 8.03858 9.52858C8.88246 9.52858 9.56721 8.84383 9.56721 7.99995C9.56721 7.15606 8.88246 6.47131 8.03858 6.47131Z" fill="black"/>
<path d="M9.93372 4.0603H6.06151C4.95723 4.0603 4.0603 4.95723 4.0603 6.06151V9.93372C4.0603 11.038 4.95723 11.9349 6.06151 11.9349H9.93372C11.038 11.9349 11.9349 11.038 11.9349 9.93372V6.06151C11.9349 4.95723 11.038 4.0603 9.93372 4.0603ZM8.0386 10.387C6.72215 10.387 5.65162 9.31648 5.65162 8.00003C5.65162 6.68357 6.72215 5.61305 8.0386 5.61305C9.35506 5.61305 10.4256 6.68357 10.4256 8.00003C10.4256 9.31648 9.35506 10.387 8.0386 10.387ZM10.5654 6.01811C10.252 6.01811 9.99641 5.76253 9.99641 5.44909C9.99641 5.13565 10.252 4.88007 10.5654 4.88007C10.8789 4.88007 11.1344 5.13565 11.1344 5.44909C11.1344 5.76253 10.8789 6.01811 10.5654 6.01811Z" fill="black"/>
<path d="M8 0C3.58288 0 0 3.58288 0 8C0 12.4171 3.58288 16 8 16C12.4171 16 16 12.4171 16 8C16 3.58288 12.4171 0 8 0ZM12.8463 9.93369C12.8463 11.5395 11.5395 12.8463 9.93369 12.8463H6.06148C4.4557 12.8463 3.14889 11.5395 3.14889 9.93369V6.06148C3.14889 4.4557 4.4557 3.14889 6.06148 3.14889H9.93369C11.5395 3.14889 12.8463 4.4557 12.8463 6.06148V9.93369Z" fill="black"/>
</g>
<defs>
<clipPath id="clip0_1488_89">
<rect width="16" height="16" fill="white"/>
</clipPath>
</defs>
</svg>
