<svg width="16" height="16" viewBox="0 0 16 16" fill="none" xmlns="http://www.w3.org/2000/svg">
<g clip-path="url(#clip0_1488_87)">
<path d="M8.00241 0C3.58396 0 0 3.58288 0 8C0 12.4171 3.58396 16 8.00241 16C12.4209 16 16 12.4171 16 8C16 3.58288 12.4209 0 8.00241 0ZM5.70154 11.6697H3.97468V6.12417H5.70154V11.6697ZM4.83811 5.36709C4.28821 5.36709 3.83961 4.9138 3.83961 4.36407C3.83961 3.81435 4.28821 3.36588 4.83811 3.36588C5.388 3.36588 5.84142 3.81435 5.84142 4.36407C5.84142 4.9138 5.39283 5.36709 4.83811 5.36709ZM12.1652 11.6697H10.4383V8.97408C10.4383 8.32791 10.4287 7.50332 9.54115 7.50332C8.6536 7.50332 8.50889 8.20253 8.50889 8.92586V11.6697H6.78686V6.12417H8.44136V6.88125H8.46066C8.69219 6.44244 9.25656 5.98433 10.0959 5.98433C11.842 5.98433 12.1652 7.13201 12.1652 8.62688V11.6697Z" fill="black"/>
</g>
<defs>
<clipPath id="clip0_1488_87">
<rect width="16" height="16" fill="white"/>
</clipPath>
</defs>
</svg>
