<svg width="11" height="10" viewBox="0 0 11 10" fill="none" xmlns="http://www.w3.org/2000/svg">
<mask id="mask0_1785_452" style="mask-type:alpha" maskUnits="userSpaceOnUse" x="0" y="0" width="11" height="10">
<rect width="10.9091" height="10" fill="none"/>
</mask>
<g mask="url(#mask0_1785_452)">
<path d="M0 9.09091V8.00786C0 7.77009 0.0566003 7.56017 0.169801 7.37812C0.283002 7.19607 0.441183 7.04486 0.644345 6.92451C1.15065 6.62189 1.68345 6.38354 2.24274 6.20945C2.80213 6.03546 3.43852 5.94847 4.15191 5.94847C4.86541 5.94847 5.5018 6.03546 6.06109 6.20945C6.62048 6.38354 7.15333 6.62189 7.65963 6.92451C7.8628 7.04486 8.02098 7.19607 8.13418 7.37812C8.24738 7.56017 8.30398 7.77009 8.30398 8.00786V9.09091H0ZM9.41946 9.09091V8.05626C9.41946 7.66471 9.34571 7.30558 9.19822 6.97887C9.05063 6.65227 8.85583 6.38657 8.61383 6.18179C8.90541 6.26559 9.19404 6.36809 9.47973 6.48928C9.76531 6.61058 10.0468 6.75581 10.3241 6.92498C10.4997 7.02491 10.6411 7.17763 10.7483 7.38315C10.8555 7.58866 10.9091 7.81303 10.9091 8.05626V9.09091H9.41946ZM4.15191 4.80744C3.61741 4.80744 3.16363 4.61827 2.79056 4.23992C2.41749 3.86146 2.23096 3.4012 2.23096 2.85913C2.23096 2.31706 2.41749 1.85685 2.79056 1.4785C3.16363 1.10004 3.61741 0.910817 4.15191 0.910817C4.68641 0.910817 5.14025 1.10004 5.51342 1.4785C5.88648 1.85685 6.07302 2.31706 6.07302 2.85913C6.07302 3.4012 5.88648 3.86146 5.51342 4.23992C5.14025 4.61827 4.68641 4.80744 4.15191 4.80744ZM8.51127 2.85913C8.51127 3.4012 8.32474 3.86146 7.95167 4.23992C7.57861 4.61827 7.12482 4.80744 6.59032 4.80744C6.55138 4.80744 6.52954 4.80985 6.52479 4.81467C6.51993 4.81949 6.49809 4.8175 6.45925 4.8087C6.68297 4.54212 6.86046 4.24558 6.99174 3.91908C7.12291 3.59258 7.1885 3.23905 7.1885 2.8585C7.1885 2.47785 7.12157 2.12574 6.98771 1.80217C6.85385 1.47871 6.6777 1.18122 6.45925 0.909717C6.48621 0.908879 6.50806 0.908879 6.52479 0.909717C6.54142 0.91045 6.56326 0.910817 6.59032 0.910817C7.12482 0.910817 7.57861 1.10004 7.95167 1.4785C8.32474 1.85685 8.51127 2.31706 8.51127 2.85913ZM0.80547 8.27387H7.49835V8.00786C7.49835 7.92407 7.47878 7.85038 7.43964 7.78679C7.40049 7.72332 7.3315 7.66408 7.23265 7.60909C6.79493 7.3424 6.32142 7.1351 5.81212 6.9872C5.30282 6.8394 4.74942 6.7655 4.15191 6.7655C3.55451 6.7655 3.00116 6.83678 2.49186 6.97934C1.98256 7.12201 1.50905 7.33193 1.07133 7.60909C0.972482 7.66282 0.903488 7.72038 0.864343 7.78177C0.825094 7.84315 0.80547 7.91804 0.80547 8.00645V8.27387ZM4.15532 3.99041C4.4629 3.99041 4.72515 3.87932 4.94204 3.65715C5.15894 3.43498 5.26739 3.16788 5.26739 2.85583C5.26739 2.54379 5.15786 2.27778 4.93879 2.05781C4.71972 1.83784 4.45635 1.72785 4.14866 1.72785C3.84097 1.72785 3.57868 1.83899 3.36178 2.06126C3.14488 2.28343 3.03643 2.55054 3.03643 2.86259C3.03643 3.17453 3.14602 3.44048 3.36519 3.66045C3.58426 3.88042 3.84763 3.99041 4.15532 3.99041Z" fill="#0B0A0A"/>
</g>
</svg>
