<svg width="11" height="10" viewBox="0 0 11 10" fill="none" xmlns="http://www.w3.org/2000/svg">
<mask id="mask0_1926_725" style="mask-type:alpha" maskUnits="userSpaceOnUse" x="0" y="0" width="11" height="10">
<rect width="10.9091" height="10" fill="none"/>
</mask>
<g mask="url(#mask0_1926_725)">
<path d="M1.45374 7.71156V6.99354C1.45374 6.83438 1.49525 6.69483 1.57828 6.5749C1.66131 6.45497 1.77733 6.3551 1.92635 6.27531C2.29771 6.07469 2.68851 5.91667 3.09874 5.80125C3.50904 5.6859 3.97582 5.62823 4.49908 5.62823C5.02241 5.62823 5.48919 5.6859 5.89942 5.80125C6.30972 5.91667 6.70055 6.07469 7.07192 6.27531C7.22093 6.3551 7.33696 6.45497 7.41999 6.5749C7.50302 6.69483 7.54453 6.83438 7.54453 6.99354V7.71156H1.45374ZM8.36271 7.71156V7.02563C8.36271 6.76604 8.30862 6.52795 8.20044 6.31136C8.09218 6.09483 7.9493 5.91868 7.7718 5.78292C7.98567 5.83847 8.19737 5.90642 8.40692 5.98677C8.61639 6.06719 8.82283 6.16347 9.02624 6.27563C9.15502 6.34188 9.25874 6.44254 9.33737 6.57761C9.41601 6.71261 9.45533 6.86195 9.45533 7.02563V7.71156H8.36271ZM4.49908 4.87177C4.10703 4.87177 3.77419 4.74636 3.50055 4.49552C3.22692 4.24462 3.0901 3.93948 3.0901 3.58011C3.0901 3.22073 3.22692 2.91563 3.50055 2.66479C3.77419 2.41389 4.10703 2.28844 4.49908 2.28844C4.89112 2.28844 5.224 2.41389 5.49771 2.66479C5.77135 2.91563 5.90817 3.22073 5.90817 3.58011C5.90817 3.93948 5.77135 4.24462 5.49771 4.49552C5.224 4.74636 4.89112 4.87177 4.49908 4.87177ZM7.69658 3.58011C7.69658 3.93948 7.55976 4.24462 7.28612 4.49552C7.01249 4.74636 6.67964 4.87177 6.2876 4.87177C6.25904 4.87177 6.24302 4.87337 6.23953 4.87656C6.23597 4.87976 6.21995 4.87844 6.19146 4.8726C6.35555 4.69587 6.48574 4.49927 6.58203 4.28281C6.67824 4.06636 6.72635 3.83198 6.72635 3.57969C6.72635 3.32733 6.67726 3.09389 6.57908 2.87938C6.4809 2.66493 6.35169 2.46771 6.19146 2.28771C6.21124 2.28715 6.22726 2.28715 6.23953 2.28771C6.25173 2.2882 6.26775 2.28844 6.2876 2.28844C6.67964 2.28844 7.01249 2.41389 7.28612 2.66479C7.55976 2.91563 7.69658 3.22073 7.69658 3.58011Z" fill="white"/>
</g>
</svg>
