<svg width="16" height="16" viewBox="0 0 16 16" fill="none" xmlns="http://www.w3.org/2000/svg">
<g clip-path="url(#clip0_1488_84)">
<path d="M9.81794 7.93252L7.30076 6.56302C7.19949 6.50516 6.84265 6.57749 6.84265 6.69804V9.36953C6.84265 9.48527 7.19467 9.56242 7.29594 9.50455L9.92885 8.20257C10.0349 8.1447 9.92885 7.99039 9.81794 7.93252Z" fill="black"/>
<path d="M8 0C3.58288 0 0 3.58288 0 8C0 12.4171 3.58288 16 8 16C12.4171 16 16 12.4171 16 8C16 3.58288 12.4171 0 8 0ZM13.3767 9.36468C13.3767 10.6329 12.3496 11.66 11.0814 11.66H5.21278C3.94455 11.66 2.91742 10.6329 2.91742 9.36468V6.63532C2.91742 5.36709 3.94455 4.33996 5.21278 4.33996H11.0814C12.3496 4.33996 13.3767 5.36709 13.3767 6.63532V9.36468Z" fill="black"/>
</g>
<defs>
<clipPath id="clip0_1488_84">
<rect width="16" height="16" fill="white"/>
</clipPath>
</defs>
</svg>
